# Blender 3.6.5
# www.blender.org
mtllib caja_tiempo.mtl
o crate_01_hi
v -2.101451 -0.000000 -0.870000
v -3.847451 -0.000000 -0.870000
v -2.395451 -0.000000 -0.582000
v -2.101451 -0.000000 -0.870000
v -2.395451 -0.000000 -0.582000
v -2.101451 0.000000 0.876000
v -2.101451 0.000000 0.876000
v -2.395451 -0.000000 -0.582000
v -2.395451 0.000000 0.582000
v -2.101451 0.000000 0.876000
v -2.395451 0.000000 0.582000
v -3.847451 0.000000 0.876000
v -3.847451 0.000000 0.876000
v -2.395451 0.000000 0.582000
v -3.559451 0.000000 0.582000
v -3.847451 0.000000 0.876000
v -3.559451 0.000000 0.582000
v -3.559451 -0.000000 -0.582000
v -3.559451 -0.000000 -0.582000
v -3.559451 0.000000 0.582000
v -2.395451 0.000000 0.582000
v -3.559451 -0.000000 -0.582000
v -2.395451 0.000000 0.582000
v -2.395451 -0.000000 -0.582000
v -3.559451 -0.000000 -0.582000
v -2.395451 -0.000000 -0.582000
v -3.847451 -0.000000 -0.870000
v -3.559451 -0.000000 -0.582000
v -3.847451 -0.000000 -0.870000
v -3.847451 0.000000 0.876000
v -2.395451 0.287000 0.876000
v -2.101451 1.747000 0.876000
v -2.101451 0.000000 0.876000
v -2.395451 0.287000 0.876000
v -2.101451 0.000000 0.876000
v -3.559451 0.287000 0.876000
v -3.559451 0.287000 0.876000
v -2.101451 0.000000 0.876000
v -3.847451 0.000000 0.876000
v -3.559451 0.287000 0.876000
v -3.847451 0.000000 0.876000
v -3.559451 1.452000 0.876000
v -3.559451 1.452000 0.876000
v -3.847451 0.000000 0.876000
v -3.847451 1.747000 0.876000
v -3.559451 1.452000 0.876000
v -3.847451 1.747000 0.876000
v -2.395451 1.452000 0.876000
v -2.395451 1.452000 0.876000
v -3.847451 1.747000 0.876000
v -2.101451 1.747000 0.876000
v -2.395451 1.452000 0.876000
v -2.101451 1.747000 0.876000
v -2.395451 0.287000 0.876000
v -2.395451 1.452000 0.876000
v -2.395451 0.287000 0.876000
v -3.559451 1.452000 0.876000
v -3.559451 1.452000 0.876000
v -2.395451 0.287000 0.876000
v -3.559451 0.287000 0.876000
v -2.395451 1.747000 0.582000
v -2.101451 1.747000 -0.870000
v -2.101451 1.747000 0.876000
v -2.395451 1.747000 0.582000
v -2.101451 1.747000 0.876000
v -3.559451 1.747000 0.582000
v -3.559451 1.747000 0.582000
v -2.101451 1.747000 0.876000
v -3.847451 1.747000 0.876000
v -3.559451 1.747000 0.582000
v -3.847451 1.747000 0.876000
v -3.847451 1.747000 -0.870000
v -3.559451 1.747000 0.582000
v -3.847451 1.747000 -0.870000
v -3.559451 1.747000 -0.582000
v -3.559451 1.747000 0.582000
v -3.559451 1.747000 -0.582000
v -2.395451 1.747000 0.582000
v -2.395451 1.747000 0.582000
v -3.559451 1.747000 -0.582000
v -2.395451 1.747000 -0.582000
v -2.395451 1.747000 0.582000
v -2.395451 1.747000 -0.582000
v -2.101451 1.747000 -0.870000
v -2.101451 1.747000 -0.870000
v -2.395451 1.747000 -0.582000
v -3.559451 1.747000 -0.582000
v -2.101451 1.747000 -0.870000
v -3.559451 1.747000 -0.582000
v -3.847451 1.747000 -0.870000
v -3.559451 1.452000 -0.870000
v -2.101451 1.747000 -0.870000
v -3.847451 1.747000 -0.870000
v -3.559451 1.452000 -0.870000
v -3.847451 1.747000 -0.870000
v -3.559451 0.287000 -0.870000
v -3.559451 0.287000 -0.870000
v -3.847451 1.747000 -0.870000
v -3.847451 -0.000000 -0.870000
v -3.559451 0.287000 -0.870000
v -3.847451 -0.000000 -0.870000
v -2.395451 0.287000 -0.870000
v -2.395451 0.287000 -0.870000
v -3.847451 -0.000000 -0.870000
v -2.101451 -0.000000 -0.870000
v -2.395451 0.287000 -0.870000
v -2.101451 -0.000000 -0.870000
v -2.395451 1.452000 -0.870000
v -2.395451 1.452000 -0.870000
v -2.101451 -0.000000 -0.870000
v -2.101451 1.747000 -0.870000
v -2.395451 1.452000 -0.870000
v -2.101451 1.747000 -0.870000
v -3.559451 1.452000 -0.870000
v -2.395451 1.452000 -0.870000
v -3.559451 1.452000 -0.870000
v -3.559451 0.287000 -0.870000
v -2.395451 1.452000 -0.870000
v -3.559451 0.287000 -0.870000
v -2.395451 0.287000 -0.870000
v -2.101451 1.452000 0.582000
v -2.101451 0.000000 0.876000
v -2.101451 1.747000 0.876000
v -2.101451 1.452000 0.582000
v -2.101451 1.747000 0.876000
v -2.101451 1.452000 -0.582000
v -2.101451 1.452000 -0.582000
v -2.101451 1.747000 0.876000
v -2.101451 1.747000 -0.870000
v -2.101451 1.452000 -0.582000
v -2.101451 1.747000 -0.870000
v -2.101451 0.287000 -0.582000
v -2.101451 0.287000 -0.582000
v -2.101451 1.747000 -0.870000
v -2.101451 -0.000000 -0.870000
v -2.101451 0.287000 -0.582000
v -2.101451 -0.000000 -0.870000
v -2.101451 0.287000 0.582000
v -2.101451 0.287000 0.582000
v -2.101451 -0.000000 -0.870000
v -2.101451 0.000000 0.876000
v -2.101451 0.287000 0.582000
v -2.101451 0.000000 0.876000
v -2.101451 1.452000 0.582000
v -2.101451 0.287000 0.582000
v -2.101451 1.452000 0.582000
v -2.101451 0.287000 -0.582000
v -2.101451 0.287000 -0.582000
v -2.101451 1.452000 0.582000
v -2.101451 1.452000 -0.582000
v -3.847451 1.452000 -0.582000
v -3.847451 -0.000000 -0.870000
v -3.847451 1.747000 -0.870000
v -3.847451 1.452000 -0.582000
v -3.847451 1.747000 -0.870000
v -3.847451 1.452000 0.582000
v -3.847451 1.452000 0.582000
v -3.847451 1.747000 -0.870000
v -3.847451 1.747000 0.876000
v -3.847451 1.452000 0.582000
v -3.847451 1.747000 0.876000
v -3.847451 0.287000 0.582000
v -3.847451 0.287000 0.582000
v -3.847451 1.747000 0.876000
v -3.847451 0.000000 0.876000
v -3.847451 0.287000 0.582000
v -3.847451 0.000000 0.876000
v -3.847451 0.287000 -0.582000
v -3.847451 0.287000 -0.582000
v -3.847451 0.000000 0.876000
v -3.847451 -0.000000 -0.870000
v -3.847451 0.287000 -0.582000
v -3.847451 -0.000000 -0.870000
v -3.847451 1.452000 -0.582000
v -3.847451 0.287000 -0.582000
v -3.847451 1.452000 -0.582000
v -3.847451 0.287000 0.582000
v -3.847451 0.287000 0.582000
v -3.847451 1.452000 -0.582000
v -3.847451 1.452000 0.582000
vn -0.0000 -1.0000 -0.0000
vn -0.0000 -0.0000 1.0000
vn -0.0000 1.0000 -0.0000
vn -0.0000 -0.0000 -1.0000
vn 1.0000 -0.0000 -0.0000
vn -1.0000 -0.0000 -0.0000
vt 0.000000 0.000000
vt 1.000000 0.000000
vt 0.000000 1.000000
vt 1.000000 1.000000
s 0
usemtl 912_496_49_428_16_16
f 1/1/1 3/2/1 2/3/1
f 4/3/1 6/1/1 5/4/1
f 7/1/1 9/2/1 8/4/1
f 10/3/1 12/1/1 11/4/1
f 13/1/1 15/2/1 14/4/1
f 16/3/1 18/2/1 17/4/1
f 25/4/1 27/3/1 26/2/1
f 28/2/1 30/3/1 29/1/1
f 31/4/2 33/3/2 32/1/2
f 34/2/2 36/4/2 35/1/2
f 37/4/2 39/3/2 38/1/2
f 40/2/2 42/4/2 41/1/2
f 43/4/2 45/3/2 44/1/2
f 46/2/2 48/4/2 47/1/2
f 49/4/2 51/3/2 50/1/2
f 52/2/2 54/4/2 53/1/2
f 61/4/3 63/3/3 62/1/3
f 64/2/3 66/4/3 65/1/3
f 67/4/3 69/3/3 68/1/3
f 70/2/3 72/3/3 71/1/3
f 73/2/3 75/4/3 74/3/3
f 82/4/3 84/1/3 83/2/3
f 85/3/3 87/2/3 86/4/3
f 88/3/3 90/1/3 89/2/3
f 91/4/4 93/3/4 92/1/4
f 94/2/4 96/4/4 95/1/4
f 97/4/4 99/3/4 98/1/4
f 100/2/4 102/4/4 101/1/4
f 103/4/4 105/3/4 104/1/4
f 106/2/4 108/4/4 107/1/4
f 109/4/4 111/3/4 110/1/4
f 112/2/4 114/4/4 113/1/4
f 121/4/5 123/3/5 122/1/5
f 124/2/5 126/4/5 125/1/5
f 127/4/5 129/3/5 128/1/5
f 130/2/5 132/4/5 131/1/5
f 133/4/5 135/3/5 134/1/5
f 136/2/5 138/4/5 137/1/5
f 139/4/5 141/3/5 140/1/5
f 142/2/5 144/4/5 143/1/5
f 151/4/6 153/3/6 152/1/6
f 154/2/6 156/4/6 155/1/6
f 157/4/6 159/3/6 158/1/6
f 160/2/6 162/4/6 161/1/6
f 163/4/6 165/3/6 164/1/6
f 166/2/6 168/4/6 167/1/6
f 169/4/6 171/3/6 170/1/6
f 172/2/6 174/4/6 173/1/6
usemtl 704_0_45_248_64_64
f 19/1/1 21/4/1 20/3/1
f 22/1/1 24/2/1 23/4/1
f 55/4/2 57/3/2 56/2/2
f 58/3/2 60/1/2 59/2/2
f 76/4/3 78/3/3 77/2/3
f 79/3/3 81/1/3 80/2/3
f 115/3/4 117/2/4 116/4/4
f 118/3/4 120/1/4 119/2/4
f 145/1/5 147/2/5 146/3/5
f 148/2/5 150/4/5 149/3/5
f 175/1/6 177/2/6 176/3/6
f 178/2/6 180/4/6 179/3/6
o crate_02_hi
v 0.876000 -0.000000 -0.870000
v -0.870000 -0.000000 -0.870000
v 0.582000 -0.000000 -0.582000
v 0.876000 -0.000000 -0.870000
v 0.582000 -0.000000 -0.582000
v 0.876000 0.000000 0.876000
v 0.876000 0.000000 0.876000
v 0.582000 -0.000000 -0.582000
v 0.582000 0.000000 0.582000
v 0.876000 0.000000 0.876000
v 0.582000 0.000000 0.582000
v -0.870000 0.000000 0.876000
v -0.870000 0.000000 0.876000
v 0.582000 0.000000 0.582000
v -0.582000 0.000000 0.582000
v -0.870000 0.000000 0.876000
v -0.582000 0.000000 0.582000
v -0.582000 -0.000000 -0.582000
v -0.582000 -0.000000 -0.582000
v -0.582000 0.000000 0.582000
v 0.582000 0.000000 0.582000
v -0.582000 -0.000000 -0.582000
v 0.582000 0.000000 0.582000
v 0.582000 -0.000000 -0.582000
v -0.582000 -0.000000 -0.582000
v 0.582000 -0.000000 -0.582000
v -0.870000 -0.000000 -0.870000
v -0.582000 -0.000000 -0.582000
v -0.870000 -0.000000 -0.870000
v -0.870000 0.000000 0.876000
v 0.582000 0.287000 0.876000
v 0.876000 1.747000 0.876000
v 0.876000 0.000000 0.876000
v 0.582000 0.287000 0.876000
v 0.876000 0.000000 0.876000
v -0.582000 0.287000 0.876000
v -0.582000 0.287000 0.876000
v 0.876000 0.000000 0.876000
v -0.870000 0.000000 0.876000
v -0.582000 0.287000 0.876000
v -0.870000 0.000000 0.876000
v -0.582000 1.452000 0.876000
v -0.582000 1.452000 0.876000
v -0.870000 0.000000 0.876000
v -0.870000 1.747000 0.876000
v -0.582000 1.452000 0.876000
v -0.870000 1.747000 0.876000
v 0.582000 1.452000 0.876000
v 0.582000 1.452000 0.876000
v -0.870000 1.747000 0.876000
v 0.876000 1.747000 0.876000
v 0.582000 1.452000 0.876000
v 0.876000 1.747000 0.876000
v 0.582000 0.287000 0.876000
v 0.582000 1.452000 0.876000
v 0.582000 0.287000 0.876000
v -0.582000 1.452000 0.876000
v -0.582000 1.452000 0.876000
v 0.582000 0.287000 0.876000
v -0.582000 0.287000 0.876000
v 0.582000 1.747000 0.582000
v 0.876000 1.747000 -0.870000
v 0.876000 1.747000 0.876000
v 0.582000 1.747000 0.582000
v 0.876000 1.747000 0.876000
v -0.582000 1.747000 0.582000
v -0.582000 1.747000 0.582000
v 0.876000 1.747000 0.876000
v -0.870000 1.747000 0.876000
v -0.582000 1.747000 0.582000
v -0.870000 1.747000 0.876000
v -0.870000 1.747000 -0.870000
v -0.582000 1.747000 0.582000
v -0.870000 1.747000 -0.870000
v -0.582000 1.747000 -0.582000
v -0.582000 1.747000 0.582000
v -0.582000 1.747000 -0.582000
v 0.582000 1.747000 0.582000
v 0.582000 1.747000 0.582000
v -0.582000 1.747000 -0.582000
v 0.582000 1.747000 -0.582000
v 0.582000 1.747000 0.582000
v 0.582000 1.747000 -0.582000
v 0.876000 1.747000 -0.870000
v 0.876000 1.747000 -0.870000
v 0.582000 1.747000 -0.582000
v -0.582000 1.747000 -0.582000
v 0.876000 1.747000 -0.870000
v -0.582000 1.747000 -0.582000
v -0.870000 1.747000 -0.870000
v -0.582000 1.452000 -0.870000
v 0.876000 1.747000 -0.870000
v -0.870000 1.747000 -0.870000
v -0.582000 1.452000 -0.870000
v -0.870000 1.747000 -0.870000
v -0.582000 0.287000 -0.870000
v -0.582000 0.287000 -0.870000
v -0.870000 1.747000 -0.870000
v -0.870000 -0.000000 -0.870000
v -0.582000 0.287000 -0.870000
v -0.870000 -0.000000 -0.870000
v 0.582000 0.287000 -0.870000
v 0.582000 0.287000 -0.870000
v -0.870000 -0.000000 -0.870000
v 0.876000 -0.000000 -0.870000
v 0.582000 0.287000 -0.870000
v 0.876000 -0.000000 -0.870000
v 0.582000 1.452000 -0.870000
v 0.582000 1.452000 -0.870000
v 0.876000 -0.000000 -0.870000
v 0.876000 1.747000 -0.870000
v 0.582000 1.452000 -0.870000
v 0.876000 1.747000 -0.870000
v -0.582000 1.452000 -0.870000
v 0.582000 1.452000 -0.870000
v -0.582000 1.452000 -0.870000
v -0.582000 0.287000 -0.870000
v 0.582000 1.452000 -0.870000
v -0.582000 0.287000 -0.870000
v 0.582000 0.287000 -0.870000
v 0.876000 1.452000 0.582000
v 0.876000 0.000000 0.876000
v 0.876000 1.747000 0.876000
v 0.876000 1.452000 0.582000
v 0.876000 1.747000 0.876000
v 0.876000 1.452000 -0.582000
v 0.876000 1.452000 -0.582000
v 0.876000 1.747000 0.876000
v 0.876000 1.747000 -0.870000
v 0.876000 1.452000 -0.582000
v 0.876000 1.747000 -0.870000
v 0.876000 0.287000 -0.582000
v 0.876000 0.287000 -0.582000
v 0.876000 1.747000 -0.870000
v 0.876000 -0.000000 -0.870000
v 0.876000 0.287000 -0.582000
v 0.876000 -0.000000 -0.870000
v 0.876000 0.287000 0.582000
v 0.876000 0.287000 0.582000
v 0.876000 -0.000000 -0.870000
v 0.876000 0.000000 0.876000
v 0.876000 0.287000 0.582000
v 0.876000 0.000000 0.876000
v 0.876000 1.452000 0.582000
v 0.876000 0.287000 0.582000
v 0.876000 1.452000 0.582000
v 0.876000 0.287000 -0.582000
v 0.876000 0.287000 -0.582000
v 0.876000 1.452000 0.582000
v 0.876000 1.452000 -0.582000
v -0.870000 1.452000 -0.582000
v -0.870000 -0.000000 -0.870000
v -0.870000 1.747000 -0.870000
v -0.870000 1.452000 -0.582000
v -0.870000 1.747000 -0.870000
v -0.870000 1.452000 0.582000
v -0.870000 1.452000 0.582000
v -0.870000 1.747000 -0.870000
v -0.870000 1.747000 0.876000
v -0.870000 1.452000 0.582000
v -0.870000 1.747000 0.876000
v -0.870000 0.287000 0.582000
v -0.870000 0.287000 0.582000
v -0.870000 1.747000 0.876000
v -0.870000 0.000000 0.876000
v -0.870000 0.287000 0.582000
v -0.870000 0.000000 0.876000
v -0.870000 0.287000 -0.582000
v -0.870000 0.287000 -0.582000
v -0.870000 0.000000 0.876000
v -0.870000 -0.000000 -0.870000
v -0.870000 0.287000 -0.582000
v -0.870000 -0.000000 -0.870000
v -0.870000 1.452000 -0.582000
v -0.870000 0.287000 -0.582000
v -0.870000 1.452000 -0.582000
v -0.870000 0.287000 0.582000
v -0.870000 0.287000 0.582000
v -0.870000 1.452000 -0.582000
v -0.870000 1.452000 0.582000
vn -0.0000 -1.0000 -0.0000
vn -0.0000 -0.0000 1.0000
vn -0.0000 1.0000 -0.0000
vn -0.0000 -0.0000 -1.0000
vn 1.0000 -0.0000 -0.0000
vn -1.0000 -0.0000 -0.0000
vt 0.000000 0.000000
vt 1.000000 0.000000
vt 0.000000 1.000000
vt 1.000000 1.000000
s 0
usemtl 912_496_49_428_16_16.001
f 181/5/7 183/6/7 182/7/7
f 184/7/7 186/5/7 185/8/7
f 187/5/7 189/6/7 188/8/7
f 190/7/7 192/5/7 191/8/7
f 193/5/7 195/6/7 194/8/7
f 196/7/7 198/6/7 197/8/7
f 205/8/7 207/7/7 206/6/7
f 208/6/7 210/7/7 209/5/7
f 211/8/8 213/7/8 212/5/8
f 214/6/8 216/8/8 215/5/8
f 217/8/8 219/7/8 218/5/8
f 220/6/8 222/8/8 221/5/8
f 223/8/8 225/7/8 224/5/8
f 226/6/8 228/8/8 227/5/8
f 229/8/8 231/7/8 230/5/8
f 232/6/8 234/8/8 233/5/8
f 241/8/9 243/7/9 242/5/9
f 244/6/9 246/8/9 245/5/9
f 247/8/9 249/7/9 248/5/9
f 250/6/9 252/7/9 251/5/9
f 253/6/9 255/8/9 254/7/9
f 262/8/9 264/5/9 263/6/9
f 265/7/9 267/6/9 266/8/9
f 268/7/9 270/5/9 269/6/9
f 271/8/10 273/7/10 272/5/10
f 274/6/10 276/8/10 275/5/10
f 277/8/10 279/7/10 278/5/10
f 280/6/10 282/8/10 281/5/10
f 283/8/10 285/7/10 284/5/10
f 286/6/10 288/8/10 287/5/10
f 289/8/10 291/7/10 290/5/10
f 292/6/10 294/8/10 293/5/10
f 301/8/11 303/7/11 302/5/11
f 304/6/11 306/8/11 305/5/11
f 307/8/11 309/7/11 308/5/11
f 310/6/11 312/8/11 311/5/11
f 313/8/11 315/7/11 314/5/11
f 316/6/11 318/8/11 317/5/11
f 319/8/11 321/7/11 320/5/11
f 322/6/11 324/8/11 323/5/11
f 331/8/12 333/7/12 332/5/12
f 334/6/12 336/8/12 335/5/12
f 337/8/12 339/7/12 338/5/12
f 340/6/12 342/8/12 341/5/12
f 343/8/12 345/7/12 344/5/12
f 346/6/12 348/8/12 347/5/12
f 349/8/12 351/7/12 350/5/12
f 352/6/12 354/8/12 353/5/12
usemtl 736_0_33_248_64_64
f 199/5/7 201/8/7 200/7/7
f 202/5/7 204/6/7 203/8/7
f 235/8/8 237/7/8 236/6/8
f 238/7/8 240/5/8 239/6/8
f 256/8/9 258/7/9 257/6/9
f 259/7/9 261/5/9 260/6/9
f 295/7/10 297/6/10 296/8/10
f 298/7/10 300/5/10 299/6/10
f 325/5/11 327/6/11 326/7/11
f 328/6/11 330/8/11 329/7/11
f 355/5/12 357/6/12 356/7/12
f 358/6/12 360/8/12 359/7/12
o crate_03_hi
v 3.917507 -0.000000 -0.870000
v 2.171507 -0.000000 -0.870000
v 3.623507 -0.000000 -0.582000
v 3.917507 -0.000000 -0.870000
v 3.623507 -0.000000 -0.582000
v 3.917507 0.000000 0.876000
v 3.917507 0.000000 0.876000
v 3.623507 -0.000000 -0.582000
v 3.623507 0.000000 0.582000
v 3.917507 0.000000 0.876000
v 3.623507 0.000000 0.582000
v 2.171507 0.000000 0.876000
v 2.171507 0.000000 0.876000
v 3.623507 0.000000 0.582000
v 2.459507 0.000000 0.582000
v 2.171507 0.000000 0.876000
v 2.459507 0.000000 0.582000
v 2.459507 -0.000000 -0.582000
v 2.459507 -0.000000 -0.582000
v 2.459507 0.000000 0.582000
v 3.623507 0.000000 0.582000
v 2.459507 -0.000000 -0.582000
v 3.623507 0.000000 0.582000
v 3.623507 -0.000000 -0.582000
v 2.459507 -0.000000 -0.582000
v 3.623507 -0.000000 -0.582000
v 2.171507 -0.000000 -0.870000
v 2.459507 -0.000000 -0.582000
v 2.171507 -0.000000 -0.870000
v 2.171507 0.000000 0.876000
v 3.623507 0.287000 0.876000
v 3.917507 1.747000 0.876000
v 3.917507 0.000000 0.876000
v 3.623507 0.287000 0.876000
v 3.917507 0.000000 0.876000
v 2.459507 0.287000 0.876000
v 2.459507 0.287000 0.876000
v 3.917507 0.000000 0.876000
v 2.171507 0.000000 0.876000
v 2.459507 0.287000 0.876000
v 2.171507 0.000000 0.876000
v 2.459507 1.452000 0.876000
v 2.459507 1.452000 0.876000
v 2.171507 0.000000 0.876000
v 2.171507 1.747000 0.876000
v 2.459507 1.452000 0.876000
v 2.171507 1.747000 0.876000
v 3.623507 1.452000 0.876000
v 3.623507 1.452000 0.876000
v 2.171507 1.747000 0.876000
v 3.917507 1.747000 0.876000
v 3.623507 1.452000 0.876000
v 3.917507 1.747000 0.876000
v 3.623507 0.287000 0.876000
v 3.623507 1.452000 0.876000
v 3.623507 0.287000 0.876000
v 2.459507 1.452000 0.876000
v 2.459507 1.452000 0.876000
v 3.623507 0.287000 0.876000
v 2.459507 0.287000 0.876000
v 3.623507 1.747000 0.582000
v 3.917507 1.747000 -0.870000
v 3.917507 1.747000 0.876000
v 3.623507 1.747000 0.582000
v 3.917507 1.747000 0.876000
v 2.459507 1.747000 0.582000
v 2.459507 1.747000 0.582000
v 3.917507 1.747000 0.876000
v 2.171507 1.747000 0.876000
v 2.459507 1.747000 0.582000
v 2.171507 1.747000 0.876000
v 2.171507 1.747000 -0.870000
v 2.459507 1.747000 0.582000
v 2.171507 1.747000 -0.870000
v 2.459507 1.747000 -0.582000
v 2.459507 1.747000 0.582000
v 2.459507 1.747000 -0.582000
v 3.623507 1.747000 0.582000
v 3.623507 1.747000 0.582000
v 2.459507 1.747000 -0.582000
v 3.623507 1.747000 -0.582000
v 3.623507 1.747000 0.582000
v 3.623507 1.747000 -0.582000
v 3.917507 1.747000 -0.870000
v 3.917507 1.747000 -0.870000
v 3.623507 1.747000 -0.582000
v 2.459507 1.747000 -0.582000
v 3.917507 1.747000 -0.870000
v 2.459507 1.747000 -0.582000
v 2.171507 1.747000 -0.870000
v 2.459507 1.452000 -0.870000
v 3.917507 1.747000 -0.870000
v 2.171507 1.747000 -0.870000
v 2.459507 1.452000 -0.870000
v 2.171507 1.747000 -0.870000
v 2.459507 0.287000 -0.870000
v 2.459507 0.287000 -0.870000
v 2.171507 1.747000 -0.870000
v 2.171507 -0.000000 -0.870000
v 2.459507 0.287000 -0.870000
v 2.171507 -0.000000 -0.870000
v 3.623507 0.287000 -0.870000
v 3.623507 0.287000 -0.870000
v 2.171507 -0.000000 -0.870000
v 3.917507 -0.000000 -0.870000
v 3.623507 0.287000 -0.870000
v 3.917507 -0.000000 -0.870000
v 3.623507 1.452000 -0.870000
v 3.623507 1.452000 -0.870000
v 3.917507 -0.000000 -0.870000
v 3.917507 1.747000 -0.870000
v 3.623507 1.452000 -0.870000
v 3.917507 1.747000 -0.870000
v 2.459507 1.452000 -0.870000
v 3.623507 1.452000 -0.870000
v 2.459507 1.452000 -0.870000
v 2.459507 0.287000 -0.870000
v 3.623507 1.452000 -0.870000
v 2.459507 0.287000 -0.870000
v 3.623507 0.287000 -0.870000
v 3.917507 1.452000 0.582000
v 3.917507 0.000000 0.876000
v 3.917507 1.747000 0.876000
v 3.917507 1.452000 0.582000
v 3.917507 1.747000 0.876000
v 3.917507 1.452000 -0.582000
v 3.917507 1.452000 -0.582000
v 3.917507 1.747000 0.876000
v 3.917507 1.747000 -0.870000
v 3.917507 1.452000 -0.582000
v 3.917507 1.747000 -0.870000
v 3.917507 0.287000 -0.582000
v 3.917507 0.287000 -0.582000
v 3.917507 1.747000 -0.870000
v 3.917507 -0.000000 -0.870000
v 3.917507 0.287000 -0.582000
v 3.917507 -0.000000 -0.870000
v 3.917507 0.287000 0.582000
v 3.917507 0.287000 0.582000
v 3.917507 -0.000000 -0.870000
v 3.917507 0.000000 0.876000
v 3.917507 0.287000 0.582000
v 3.917507 0.000000 0.876000
v 3.917507 1.452000 0.582000
v 3.917507 0.287000 0.582000
v 3.917507 1.452000 0.582000
v 3.917507 0.287000 -0.582000
v 3.917507 0.287000 -0.582000
v 3.917507 1.452000 0.582000
v 3.917507 1.452000 -0.582000
v 2.171507 1.452000 -0.582000
v 2.171507 -0.000000 -0.870000
v 2.171507 1.747000 -0.870000
v 2.171507 1.452000 -0.582000
v 2.171507 1.747000 -0.870000
v 2.171507 1.452000 0.582000
v 2.171507 1.452000 0.582000
v 2.171507 1.747000 -0.870000
v 2.171507 1.747000 0.876000
v 2.171507 1.452000 0.582000
v 2.171507 1.747000 0.876000
v 2.171507 0.287000 0.582000
v 2.171507 0.287000 0.582000
v 2.171507 1.747000 0.876000
v 2.171507 0.000000 0.876000
v 2.171507 0.287000 0.582000
v 2.171507 0.000000 0.876000
v 2.171507 0.287000 -0.582000
v 2.171507 0.287000 -0.582000
v 2.171507 0.000000 0.876000
v 2.171507 -0.000000 -0.870000
v 2.171507 0.287000 -0.582000
v 2.171507 -0.000000 -0.870000
v 2.171507 1.452000 -0.582000
v 2.171507 0.287000 -0.582000
v 2.171507 1.452000 -0.582000
v 2.171507 0.287000 0.582000
v 2.171507 0.287000 0.582000
v 2.171507 1.452000 -0.582000
v 2.171507 1.452000 0.582000
vn -0.0000 -1.0000 -0.0000
vn -0.0000 -0.0000 1.0000
vn -0.0000 1.0000 -0.0000
vn -0.0000 -0.0000 -1.0000
vn 1.0000 -0.0000 -0.0000
vn -1.0000 -0.0000 -0.0000
vt 0.000000 0.000000
vt 1.000000 0.000000
vt 0.000000 1.000000
vt 1.000000 1.000000
s 0
usemtl 912_496_49_428_16_16.002
f 361/9/13 363/10/13 362/11/13
f 364/11/13 366/9/13 365/12/13
f 367/9/13 369/10/13 368/12/13
f 370/11/13 372/9/13 371/12/13
f 373/9/13 375/10/13 374/12/13
f 376/11/13 378/10/13 377/12/13
f 385/12/13 387/11/13 386/10/13
f 388/10/13 390/11/13 389/9/13
f 391/12/14 393/11/14 392/9/14
f 394/10/14 396/12/14 395/9/14
f 397/12/14 399/11/14 398/9/14
f 400/10/14 402/12/14 401/9/14
f 403/12/14 405/11/14 404/9/14
f 406/10/14 408/12/14 407/9/14
f 409/12/14 411/11/14 410/9/14
f 412/10/14 414/12/14 413/9/14
f 421/12/15 423/11/15 422/9/15
f 424/10/15 426/12/15 425/9/15
f 427/12/15 429/11/15 428/9/15
f 430/10/15 432/11/15 431/9/15
f 433/10/15 435/12/15 434/11/15
f 442/12/15 444/9/15 443/10/15
f 445/11/15 447/10/15 446/12/15
f 448/11/15 450/9/15 449/10/15
f 451/12/16 453/11/16 452/9/16
f 454/10/16 456/12/16 455/9/16
f 457/12/16 459/11/16 458/9/16
f 460/10/16 462/12/16 461/9/16
f 463/12/16 465/11/16 464/9/16
f 466/10/16 468/12/16 467/9/16
f 469/12/16 471/11/16 470/9/16
f 472/10/16 474/12/16 473/9/16
f 481/12/17 483/11/17 482/9/17
f 484/10/17 486/12/17 485/9/17
f 487/12/17 489/11/17 488/9/17
f 490/10/17 492/12/17 491/9/17
f 493/12/17 495/11/17 494/9/17
f 496/10/17 498/12/17 497/9/17
f 499/12/17 501/11/17 500/9/17
f 502/10/17 504/12/17 503/9/17
f 511/12/18 513/11/18 512/9/18
f 514/10/18 516/12/18 515/9/18
f 517/12/18 519/11/18 518/9/18
f 520/10/18 522/12/18 521/9/18
f 523/12/18 525/11/18 524/9/18
f 526/10/18 528/12/18 527/9/18
f 529/12/18 531/11/18 530/9/18
f 532/10/18 534/12/18 533/9/18
usemtl 544_128_45_248_64_64
f 379/9/13 381/12/13 380/11/13
f 382/9/13 384/10/13 383/12/13
f 415/12/14 417/11/14 416/10/14
f 418/11/14 420/9/14 419/10/14
f 436/12/15 438/11/15 437/10/15
f 439/11/15 441/9/15 440/10/15
f 475/11/16 477/10/16 476/12/16
f 478/11/16 480/9/16 479/10/16
f 505/9/17 507/10/17 506/11/17
f 508/10/17 510/12/17 509/11/17
f 535/9/18 537/10/18 536/11/18
f 538/10/18 540/12/18 539/11/18
