# Blender 3.5.1
# www.blender.org
mtllib shellR.mtl
o polygon0.001
v -0.304980 -0.025664 -0.119844
v -0.368730 -0.065273 -0.147852
v -0.260312 0.010469 -0.239687
v -0.299219 -0.026621 -0.295703
v -0.108203 0.086230 -0.338379
v -0.131973 0.069785 -0.406758
v 0.000000 0.100937 -0.350723
v 0.000000 0.078613 -0.422187
v 0.108203 0.086230 -0.338379
v 0.131973 0.069785 -0.406758
v 0.299219 -0.026621 -0.295703
v 0.260098 -0.099258 -0.293769
v 0.332031 -0.143555 -0.146894
v 0.252910 -0.097891 0.308086
v 0.345430 -0.157637 0.000000
v 0.327812 -0.142168 0.154043
v 0.353027 -0.060645 0.154316
v 0.300312 -0.026582 0.126426
v 0.251289 0.008633 0.252852
v 0.271191 -0.013027 0.308613
v 0.127637 0.064707 0.400352
v 0.099883 -0.019590 0.406445
v 0.111504 -0.017773 -0.398457
v 0.000000 0.002715 -0.418496
v -0.111504 -0.017773 -0.398457
v -0.260098 -0.099258 -0.293769
v -0.114902 0.005664 -0.382988
v -0.302754 -0.097598 -0.150039
v -0.195742 -0.253633 -0.194238
v -0.220644 -0.274277 0.000195
v 0.000000 -0.326270 -0.210977
v 0.000000 -0.364707 0.000195
v 0.220644 -0.274277 0.000195
v 0.000000 -0.319668 0.186367
v 0.207129 -0.239316 0.179922
v 0.133535 -0.170859 0.285898
v 0.202754 -0.041738 0.280605
v -0.332031 -0.143555 -0.146894
v -0.252910 -0.097891 0.308086
v -0.099883 -0.019590 0.406445
v 0.000000 0.007852 0.428496
v 0.131758 0.230254 0.253203
v 0.244785 0.238711 -0.000078
v 0.135762 0.332246 0.000234
v 0.145566 0.234668 -0.246445
v 0.000000 0.351992 -0.123164
v 0.000000 0.234668 -0.276426
v -0.145566 0.234668 -0.246445
v 0.100547 0.085508 0.334394
v 0.000000 0.100449 0.349473
v 0.000000 0.230254 0.283184
v -0.131758 0.230254 0.253203
v 0.000000 0.353281 0.117344
v -0.135762 0.332246 0.000234
v 0.000000 0.091484 0.419902
v -0.127637 0.064707 0.400352
v -0.271191 -0.013027 0.308613
v -0.327812 -0.142168 0.154043
v -0.353027 -0.060645 0.154316
v 0.300019 -0.094297 0.121074
v 0.302754 -0.097598 -0.150039
v 0.195742 -0.253633 -0.194238
v 0.000000 -0.200586 -0.331719
v -0.094453 -0.175566 -0.312402
v -0.345430 -0.157637 0.000000
v -0.387773 -0.083301 0.000000
v -0.300312 -0.026582 0.126426
v -0.327930 -0.043730 0.000000
v -0.100547 0.085508 0.334394
v -0.251289 0.008633 0.252852
v 0.165019 -0.044941 0.339316
v 0.121953 -0.158398 0.340801
v 0.000000 -0.205430 0.353320
v 0.000000 -0.227285 0.285898
v 0.368730 -0.065273 -0.147852
v 0.387773 -0.083301 0.000000
v 0.304980 -0.025664 -0.119844
v 0.327930 -0.043730 0.000000
v -0.244785 0.238711 -0.000078
v -0.207129 -0.239316 0.179922
v -0.133535 -0.170859 0.285898
v -0.202754 -0.041738 0.280605
v 0.260312 0.010469 -0.239687
v 0.000000 0.015801 0.353633
v -0.121953 -0.158398 0.340801
v -0.300019 -0.094297 0.121074
v 0.094453 -0.175566 -0.312402
v 0.114902 0.005664 -0.382988
v -0.165019 -0.044941 0.339316
vn -0.5599 0.8222 -0.1025
vn -0.9017 0.2711 -0.3369
vn -0.5859 0.8101 -0.0237
vn -0.7593 0.4934 -0.4244
vn -0.3980 0.9042 -0.1551
vn -0.4622 0.3504 -0.8146
vn -0.0000 0.9689 -0.2476
vn -0.0000 0.5776 -0.8163
vn 0.3980 0.9042 -0.1551
vn 0.4622 0.3505 -0.8146
vn 0.7593 0.4934 -0.4244
vn 0.1986 -0.7438 -0.6382
vn 0.5262 -0.7968 -0.2970
vn 0.0961 -0.8071 0.5825
vn 0.5926 -0.8052 0.0240
vn 0.5979 -0.7232 0.3455
vn 0.9468 0.2929 0.1334
vn 0.5362 0.8403 0.0805
vn 0.8746 0.3613 0.3232
vn 0.5842 0.8109 0.0330
vn 0.7736 0.4135 0.4802
vn 0.5181 0.5401 0.6632
vn 0.0869 -0.7237 0.6846
vn -0.0879 -0.8520 -0.5162
vn -0.0000 -0.5126 -0.8586
vn 0.0879 -0.8520 -0.5161
vn -0.1986 -0.7438 -0.6382
vn -0.5567 -0.6130 -0.5606
vn -0.8559 -0.4282 -0.2900
vn -0.4053 -0.3263 -0.8540
vn -0.6251 -0.7803 0.0190
vn -0.0000 -0.9287 -0.3708
vn -0.0000 -0.9996 0.0289
vn 0.6251 -0.7803 0.0190
vn -0.0000 -0.8809 0.4733
vn 0.6436 -0.5870 0.4912
vn 0.5062 -0.7011 0.5022
vn 0.7877 -0.3410 0.5131
vn -0.5260 -0.7967 -0.2976
vn -0.0961 -0.8071 0.5825
vn -0.0869 -0.7238 0.6846
vn -0.0000 -0.4141 0.9102
vn 0.8837 0.4679 0.0159
vn 0.4982 0.6392 0.5859
vn 0.7931 0.3669 0.4862
vn 0.4763 0.8792 0.0117
vn 0.5082 0.6485 -0.5668
vn -0.0000 0.9429 -0.3332
vn -0.0000 0.6562 -0.7546
vn -0.5082 0.6485 -0.5668
vn -0.4083 0.4019 -0.8196
vn -0.8171 0.3558 -0.4536
vn 0.3918 0.3842 0.8360
vn -0.0000 0.4551 0.8904
vn -0.0000 0.6472 0.7623
vn -0.4982 0.6392 0.5859
vn -0.0000 0.9425 0.3341
vn -0.4763 0.8792 0.0117
vn -0.0000 0.6629 0.7487
vn -0.5181 0.5401 0.6633
vn -0.7736 0.4135 0.4802
vn -0.5997 -0.7238 0.3413
vn -0.8746 0.3613 0.3232
vn 0.8559 -0.4282 -0.2900
vn 0.8793 -0.4026 0.2544
vn 0.5567 -0.6130 -0.5606
vn -0.0000 -0.5480 -0.8365
vn -0.4012 -0.4678 -0.7875
vn -0.5926 -0.8052 0.0240
vn -0.9468 0.2929 0.1334
vn -0.9602 0.2780 0.0285
vn -0.5471 0.8371 0.0029
vn -0.5455 0.8380 0.0153
vn 0.3479 0.9292 0.1245
vn -0.0000 0.9847 0.1740
vn -0.3479 0.9292 0.1245
vn -0.5362 0.8403 0.0805
vn 0.5375 -0.4007 0.7420
vn 0.5015 -0.1798 0.8462
vn -0.0000 -0.7501 0.6613
vn -0.0000 -0.8608 0.5090
vn 0.9625 0.2593 -0.0802
vn 0.9602 0.2780 0.0285
vn 0.5438 0.8388 0.0278
vn 0.5455 0.8380 0.0153
vn -0.7931 0.3669 0.4862
vn -0.8837 0.4679 0.0159
vn -0.9295 0.2981 0.2172
vn -0.3918 0.3842 0.8360
vn -0.6436 -0.5870 0.4912
vn -0.5062 -0.7011 0.5022
vn -0.7877 -0.3410 0.5131
vn 0.8171 0.3558 -0.4536
vn 0.9343 0.3000 -0.1927
vn 0.4083 0.4019 -0.8196
vn -0.0000 0.4903 -0.8715
vn -0.5842 0.8109 0.0330
vn -0.0000 -0.0094 1.0000
vn -0.5375 -0.4007 0.7420
vn 0.5599 0.8222 -0.1025
vn 0.9017 0.2711 -0.3368
vn 0.5859 0.8101 -0.0237
vn -0.9592 0.2824 0.0151
vn -0.9343 0.3000 -0.1927
vn 0.9592 0.2824 0.0151
vn 0.9295 0.2981 0.2172
vn -0.8793 -0.4026 0.2544
vn 0.5470 0.8371 0.0029
vn 0.4012 -0.4678 -0.7875
vn 0.4053 -0.3263 -0.8540
vn -0.9625 0.2593 -0.0802
vn -0.5438 0.8388 0.0278
vn -0.5017 -0.1793 0.8462
vt 0.284912 0.580139
vt 0.019501 0.499359
vt 0.019501 0.499359
vt 0.019501 0.499359
vt 0.309692 0.664062
vt 0.019501 0.499359
vt 0.018402 0.500916
vt 0.433838 0.742981
vt 0.019501 0.499359
vt 0.019501 0.499359
vt 0.500641 0.742981
vt 0.019501 0.499359
vt 0.567474 0.742981
vt 0.019501 0.499359
vt 0.019501 0.499359
vt 0.019501 0.499359
vt 0.019501 0.499359
vt 0.019501 0.499359
vt 0.019501 0.499359
vt 0.019501 0.499359
vt 0.019501 0.499359
vt 0.019501 0.499359
vt 0.713074 0.409790
vt 0.019501 0.499359
vt 0.019501 0.499359
vt 0.684967 0.323364
vt 0.019501 0.499359
vt 0.019501 0.499359
vt 0.019501 0.499359
vt 0.019501 0.499359
vt 0.019501 0.499359
vt 0.019501 0.499359
vt 0.019501 0.499359
vt 0.505676 0.250336
vt 0.036438 0.509277
vt 0.660614 0.236939
vt 0.620117 0.124512
vt 0.745911 0.107971
vt 0.618133 0.028168
vt 0.747711 0.021698
vt 0.745911 0.107971
vt 0.874329 0.027191
vt 0.868561 0.125855
vt 0.943451 0.143311
vt 0.920654 0.258026
vt 0.019501 0.499359
vt 0.019501 0.499359
vt 0.019501 0.499359
vt 0.019501 0.499359
vt 0.565857 0.325836
vt 0.642578 0.496643
vt 0.562408 0.496552
vt 0.572693 0.665161
vt 0.500641 0.560028
vt 0.500641 0.665161
vt 0.428589 0.665161
vt 0.556854 0.254974
vt 0.019501 0.499359
vt 0.019501 0.499359
vt 0.500641 0.254974
vt 0.500641 0.325836
vt 0.435425 0.325836
vt 0.500641 0.436310
vt 0.438873 0.496552
vt 0.019501 0.499359
vt 0.019501 0.499359
vt 0.019501 0.499359
vt 0.019501 0.499359
vt 0.019501 0.499359
vt 0.827881 0.234039
vt 0.660614 0.236939
vt 0.620117 0.124512
vt 0.526001 0.039124
vt 0.124451 0.353332
vt 0.532684 0.150696
vt 0.052094 0.381958
vt 0.019501 0.499359
vt 0.019501 0.499359
vt 0.019501 0.499359
vt 0.288208 0.409790
vt 0.260101 0.496216
vt 0.019501 0.499359
vt 0.019501 0.499359
vt 0.444428 0.254974
vt 0.316315 0.323364
vt 0.019501 0.499359
vt 0.966278 0.251221
vt 0.207916 0.472351
vt 0.966431 0.158752
vt 0.185394 0.416962
vt 0.125153 0.388031
vt 0.967072 0.124939
vt 0.937103 0.027588
vt 0.019501 0.499359
vt 0.019501 0.499359
vt 0.019501 0.499359
vt 0.716400 0.580139
vt 0.741180 0.496216
vt 0.019501 0.499359
vt 0.358704 0.496643
vt 0.868561 0.125855
vt 0.943451 0.143311
vt 0.920654 0.258026
vt 0.691589 0.664062
vt 0.019501 0.499359
vt 0.125153 0.485962
vt 0.966431 0.158752
vt 0.064941 0.416962
vt 0.827881 0.234039
vt 0.532684 0.150696
vt 0.196808 0.381958
vt 0.212463 0.509460
vt 0.505676 0.250336
vt 0.966278 0.251221
vt 0.042419 0.472351
s 1
usemtl shell_red_tx
f 3/4/1 2/3/2 1/2/3
f 4/6/4 2/3/2 3/4/1
f 5/7/5 4/6/4 3/4/1
f 6/9/6 4/6/4 5/7/5
f 7/10/7 6/9/6 5/7/5
f 8/12/8 6/9/6 7/10/7
f 9/14/9 8/12/8 7/10/7
f 10/15/10 8/12/8 9/14/9
f 11/16/11 10/15/10 9/14/9
f 12/17/12 10/15/10 11/16/11
f 13/18/13 12/17/12 11/16/11
f 14/19/14 12/17/12 13/18/13
f 15/20/15 14/19/14 13/18/13
f 16/21/16 14/19/14 15/20/15
f 17/22/17 16/21/16 15/20/15
f 19/25/18 17/22/19 18/24/20
f 20/27/21 17/22/19 19/25/18
f 21/28/22 20/27/21 19/25/18
f 14/19/14 20/27/21 21/28/22
f 22/29/23 14/19/14 21/28/22
f 23/30/24 14/19/14 22/29/23
f 24/31/25 23/30/24 22/29/23
f 8/12/8 23/30/24 24/31/25
f 25/32/26 8/12/8 24/31/25
f 6/9/6 8/12/8 25/32/26
f 26/33/27 6/9/6 25/32/26
f 4/6/4 6/9/6 26/33/27
f 2/3/2 4/6/4 26/33/27
f 29/37/28 28/36/29 27/34/30
f 30/38/31 28/36/29 29/37/28
f 31/39/32 30/38/31 29/37/28
f 32/40/33 30/38/31 31/39/32
f 33/41/34 32/40/33 31/39/32
f 34/42/35 32/40/33 33/41/34
f 35/43/36 34/42/35 33/41/34
f 36/44/37 34/42/35 35/43/36
f 37/45/38 36/44/37 35/43/36
f 26/33/27 38/46/39 2/3/2
f 39/47/40 38/46/39 26/33/27
f 25/32/26 39/47/40 26/33/27
f 40/48/41 39/47/40 25/32/26
f 24/31/25 40/48/41 25/32/26
f 41/49/42 40/48/41 24/31/25
f 22/29/23 41/49/42 24/31/25
f 21/28/22 41/49/42 22/29/23
f 43/51/43 42/50/44 19/26/45
f 44/52/46 42/50/44 43/51/43
f 45/53/47 44/52/46 43/51/43
f 46/54/48 44/52/46 45/53/47
f 47/55/49 46/54/48 45/53/47
f 48/56/50 46/54/48 47/55/49
f 5/8/51 48/56/50 47/55/49
f 3/5/52 48/56/50 5/8/51
f 42/50/44 49/57/53 19/26/45
f 50/60/54 49/57/53 42/50/44
f 51/61/55 50/60/54 42/50/44
f 52/62/56 50/60/54 51/61/55
f 53/63/57 52/62/56 51/61/55
f 54/64/58 52/62/56 53/63/57
f 46/54/48 54/64/58 53/63/57
f 48/56/50 54/64/58 46/54/48
f 55/65/59 41/49/42 21/28/22
f 40/48/41 41/49/42 55/65/59
f 56/66/60 40/48/41 55/65/59
f 39/47/40 40/48/41 56/66/60
f 57/67/61 39/47/40 56/66/60
f 58/68/62 39/47/40 57/67/61
f 59/69/63 58/68/62 57/67/61
f 33/41/34 61/71/64 60/70/65
f 62/72/66 61/71/64 33/41/34
f 31/39/32 62/72/66 33/41/34
f 63/73/67 62/72/66 31/39/32
f 29/37/28 63/73/67 31/39/32
f 64/75/68 63/73/67 29/37/28
f 27/34/30 64/75/68 29/37/28
f 58/68/62 38/46/39 39/47/40
f 65/77/69 38/46/39 58/68/62
f 59/69/70 65/77/69 58/68/62
f 66/78/71 65/77/69 59/69/70
f 67/79/72 66/78/71 59/69/70
f 68/82/73 66/78/71 67/79/72
f 49/58/74 21/28/22 19/25/18
f 55/65/59 21/28/22 49/58/74
f 50/59/75 55/65/59 49/58/74
f 56/66/60 55/65/59 50/59/75
f 69/83/76 56/66/60 50/59/75
f 70/86/77 56/66/60 69/83/76
f 72/89/78 37/45/38 71/87/79
f 36/44/37 37/45/38 72/89/78
f 73/92/80 36/44/37 72/89/78
f 74/93/81 36/44/37 73/92/80
f 75/94/82 15/20/15 13/18/13
f 76/95/83 15/20/15 75/94/82
f 77/96/84 76/95/83 75/94/82
f 78/99/85 76/95/83 77/96/84
f 70/85/86 79/100/87 67/80/88
f 52/62/56 79/100/87 70/85/86
f 69/84/89 52/62/56 70/85/86
f 50/60/54 52/62/56 69/84/89
f 34/42/35 30/38/31 32/40/33
f 80/101/90 30/38/31 34/42/35
f 81/102/91 80/101/90 34/42/35
f 82/103/92 80/101/90 81/102/91
f 83/104/93 43/51/43 77/97/94
f 45/53/47 43/51/43 83/104/93
f 9/13/95 45/53/47 83/104/93
f 7/11/96 45/53/47 9/13/95
f 70/86/77 57/67/61 56/66/60
f 59/69/63 57/67/61 70/86/77
f 67/79/97 59/69/63 70/86/77
f 84/106/98 72/90/78 71/88/79
f 73/91/80 72/90/78 84/106/98
f 85/108/99 73/91/80 84/106/98
f 83/105/100 11/16/11 9/14/9
f 75/94/101 11/16/11 83/105/100
f 77/96/102 75/94/101 83/105/100
f 23/30/24 12/17/12 14/19/14
f 10/15/10 12/17/12 23/30/24
f 8/12/8 10/15/10 23/30/24
f 79/100/87 68/81/103 67/80/88
f 1/1/104 68/81/103 79/100/87
f 3/5/52 1/1/104 79/100/87
f 43/51/43 78/98/105 77/97/94
f 18/23/106 78/98/105 43/51/43
f 19/26/45 18/23/106 43/51/43
f 79/100/87 48/56/50 3/5/52
f 54/64/58 48/56/50 79/100/87
f 52/62/56 54/64/58 79/100/87
f 16/21/16 20/27/21 14/19/14
f 17/22/19 20/27/21 16/21/16
f 34/42/35 74/93/81 81/102/91
f 36/44/37 74/93/81 34/42/35
f 30/38/31 86/109/107 28/36/29
f 80/101/90 86/109/107 30/38/31
f 35/43/36 60/70/65 37/45/38
f 33/41/34 60/70/65 35/43/36
f 18/24/108 76/95/83 78/99/85
f 17/22/17 76/95/83 18/24/108
f 87/110/109 62/72/66 63/73/67
f 88/113/110 62/72/66 87/110/109
f 65/77/69 2/3/111 38/46/39
f 66/78/71 2/3/111 65/77/69
f 66/78/71 1/2/112 2/3/111
f 68/82/73 1/2/112 66/78/71
f 27/35/30 63/74/67 64/76/68
f 88/112/110 63/74/67 27/35/30
f 82/103/92 85/107/99 89/114/113
f 81/102/91 85/107/99 82/103/92
f 42/50/44 53/63/57 51/61/55
f 44/52/46 53/63/57 42/50/44
f 81/102/91 73/92/80 85/107/99
f 74/93/81 73/92/80 81/102/91
f 47/55/49 7/11/96 5/8/51
f 45/53/47 7/11/96 47/55/49
f 63/74/67 88/112/110 87/111/109
f 84/106/98 89/115/113 85/108/99
f 11/16/11 75/94/101 13/18/13
f 15/20/15 76/95/83 17/22/17
f 62/72/66 88/113/110 61/71/64
f 80/101/90 82/103/92 86/109/107
f 46/54/48 53/63/57 44/52/46
