# Blender 3.5.1
# www.blender.org
mtllib edificio.mtl
o pext1
v -10.000000 0.000003 10.099999
v -10.000000 20.000002 10.099997
v -30.000000 0.000003 10.100000
v -30.000000 20.000002 10.099998
v -10.000000 0.000003 9.900000
v -10.000000 20.000002 9.899997
v -30.000000 0.000003 9.900001
v -30.000000 20.000002 9.899998
vn -0.0000 -0.0000 1.0000
vn -1.0000 -0.0000 -0.0000
vn -0.0000 -0.0000 -1.0000
vn 1.0000 -0.0000 -0.0000
vn -0.0000 -1.0000 -0.0000
vn -0.0000 1.0000 -0.0000
vt 0.375000 0.000000
vt 0.375000 1.000000
vt 0.125000 0.750000
vt 0.625000 0.000000
vt 0.625000 1.000000
vt 0.875000 0.750000
vt 0.375000 0.250000
vt 0.125000 0.500000
vt 0.625000 0.250000
vt 0.875000 0.500000
vt 0.375000 0.750000
vt 0.625000 0.750000
vt 0.375000 0.500000
vt 0.625000 0.500000
s 0
usemtl paredes
f 1/1/1 2/4/1 4/9/1 3/7/1
f 3/7/2 4/9/2 8/14/2 7/13/2
f 7/13/3 8/14/3 6/12/3 5/11/3
f 5/11/4 6/12/4 2/5/4 1/2/4
f 3/8/5 7/13/5 5/11/5 1/3/5
f 8/14/6 4/10/6 2/6/6 6/12/6
o pext2
v -30.100000 0.000003 10.000000
v -30.100000 20.000002 9.999997
v -30.100000 -0.000003 -10.000000
v -30.100000 19.999998 -10.000003
v -29.900000 0.000003 10.000000
v -29.900000 20.000002 9.999997
v -29.900000 -0.000003 -10.000000
v -29.900000 19.999998 -10.000003
vn -1.0000 -0.0000 -0.0000
vn -0.0000 -0.0000 -1.0000
vn 1.0000 -0.0000 -0.0000
vn -0.0000 -0.0000 1.0000
vn -0.0000 -1.0000 -0.0000
vn -0.0000 1.0000 -0.0000
vt 0.375000 0.000000
vt 0.375000 1.000000
vt 0.125000 0.750000
vt 0.625000 0.000000
vt 0.625000 1.000000
vt 0.875000 0.750000
vt 0.375000 0.250000
vt 0.125000 0.500000
vt 0.625000 0.250000
vt 0.875000 0.500000
vt 0.375000 0.750000
vt 0.625000 0.750000
vt 0.375000 0.500000
vt 0.625000 0.500000
s 0
usemtl paredes
f 9/15/7 10/18/7 12/23/7 11/21/7
f 11/21/8 12/23/8 16/28/8 15/27/8
f 15/27/9 16/28/9 14/26/9 13/25/9
f 13/25/10 14/26/10 10/19/10 9/16/10
f 11/22/11 15/27/11 13/25/11 9/17/11
f 16/28/12 12/24/12 10/20/12 14/26/12
o pext3
v -10.000000 -0.000003 -9.900001
v -10.000000 19.999998 -9.900003
v -30.000000 -0.000003 -9.900000
v -30.000000 19.999998 -9.900002
v -10.000000 -0.000003 -10.100000
v -10.000000 19.999998 -10.100003
v -30.000000 -0.000003 -10.099999
v -30.000000 19.999998 -10.100002
vn -0.0000 -0.0000 1.0000
vn -1.0000 -0.0000 -0.0000
vn -0.0000 -0.0000 -1.0000
vn 1.0000 -0.0000 -0.0000
vn -0.0000 -1.0000 -0.0000
vn -0.0000 1.0000 -0.0000
vt 0.375000 0.000000
vt 0.375000 1.000000
vt 0.125000 0.750000
vt 0.625000 0.000000
vt 0.625000 1.000000
vt 0.875000 0.750000
vt 0.375000 0.250000
vt 0.125000 0.500000
vt 0.625000 0.250000
vt 0.875000 0.500000
vt 0.375000 0.750000
vt 0.625000 0.750000
vt 0.375000 0.500000
vt 0.625000 0.500000
s 0
usemtl paredes
f 17/29/13 18/32/13 20/37/13 19/35/13
f 19/35/14 20/37/14 24/42/14 23/41/14
f 23/41/15 24/42/15 22/40/15 21/39/15
f 21/39/16 22/40/16 18/33/16 17/30/16
f 19/36/17 23/41/17 21/39/17 17/31/17
f 24/42/18 20/38/18 18/34/18 22/40/18
o pext4
v -10.100000 -0.000003 -10.000000
v -10.100000 19.999998 -10.000003
v -10.100000 -0.000006 -30.000000
v -10.100000 19.999994 -30.000002
v -9.900000 -0.000003 -10.000000
v -9.900000 19.999998 -10.000003
v -9.900000 -0.000006 -30.000000
v -9.900000 19.999994 -30.000002
vn -1.0000 -0.0000 -0.0000
vn -0.0000 -0.0000 -1.0000
vn 1.0000 -0.0000 -0.0000
vn -0.0000 -0.0000 1.0000
vn -0.0000 -1.0000 -0.0000
vn -0.0000 1.0000 -0.0000
vt 0.375000 0.000000
vt 0.375000 1.000000
vt 0.125000 0.750000
vt 0.625000 0.000000
vt 0.625000 1.000000
vt 0.875000 0.750000
vt 0.375000 0.250000
vt 0.125000 0.500000
vt 0.625000 0.250000
vt 0.875000 0.500000
vt 0.375000 0.750000
vt 0.625000 0.750000
vt 0.375000 0.500000
vt 0.625000 0.500000
s 0
usemtl paredes
f 25/43/19 26/46/19 28/51/19 27/49/19
f 27/49/20 28/51/20 32/56/20 31/55/20
f 31/55/21 32/56/21 30/54/21 29/53/21
f 29/53/22 30/54/22 26/47/22 25/44/22
f 27/50/23 31/55/23 29/53/23 25/45/23
f 32/56/24 28/52/24 26/48/24 30/54/24
o pext5
v -10.100000 0.000006 30.000000
v -10.100000 20.000006 29.999998
v -10.100000 0.000003 10.000000
v -10.100000 20.000002 9.999997
v -9.900000 0.000006 30.000000
v -9.900000 20.000006 29.999998
v -9.900000 0.000003 10.000000
v -9.900000 20.000002 9.999997
vn -1.0000 -0.0000 -0.0000
vn -0.0000 -0.0000 -1.0000
vn 1.0000 -0.0000 -0.0000
vn -0.0000 -0.0000 1.0000
vn -0.0000 -1.0000 -0.0000
vn -0.0000 1.0000 -0.0000
vt 0.375000 0.000000
vt 0.375000 1.000000
vt 0.125000 0.750000
vt 0.625000 0.000000
vt 0.625000 1.000000
vt 0.875000 0.750000
vt 0.375000 0.250000
vt 0.125000 0.500000
vt 0.625000 0.250000
vt 0.875000 0.500000
vt 0.375000 0.750000
vt 0.625000 0.750000
vt 0.375000 0.500000
vt 0.625000 0.500000
s 0
usemtl paredes
f 33/57/25 34/60/25 36/65/25 35/63/25
f 35/63/26 36/65/26 40/70/26 39/69/26
f 39/69/27 40/70/27 38/68/27 37/67/27
f 37/67/28 38/68/28 34/61/28 33/58/28
f 35/64/29 39/69/29 37/67/29 33/59/29
f 40/70/30 36/66/30 34/62/30 38/68/30
o pext6
v 10.000000 0.000006 30.100000
v 10.000000 20.000006 30.099998
v -10.000000 0.000006 30.100000
v -10.000000 20.000006 30.099998
v 10.000000 0.000006 29.900000
v 10.000000 20.000006 29.899998
v -10.000000 0.000006 29.900000
v -10.000000 20.000006 29.899998
vn -0.0000 -0.0000 1.0000
vn -1.0000 -0.0000 -0.0000
vn -0.0000 -0.0000 -1.0000
vn 1.0000 -0.0000 -0.0000
vn -0.0000 -1.0000 -0.0000
vn -0.0000 1.0000 -0.0000
vt 0.375000 0.000000
vt 0.375000 1.000000
vt 0.125000 0.750000
vt 0.625000 0.000000
vt 0.625000 1.000000
vt 0.875000 0.750000
vt 0.375000 0.250000
vt 0.125000 0.500000
vt 0.625000 0.250000
vt 0.875000 0.500000
vt 0.375000 0.750000
vt 0.625000 0.750000
vt 0.375000 0.500000
vt 0.625000 0.500000
s 0
usemtl paredes
f 41/71/31 42/74/31 44/79/31 43/77/31
f 43/77/32 44/79/32 48/84/32 47/83/32
f 47/83/33 48/84/33 46/82/33 45/81/33
f 45/81/34 46/82/34 42/75/34 41/72/34
f 43/78/35 47/83/35 45/81/35 41/73/35
f 48/84/36 44/80/36 42/76/36 46/82/36
o pext7
v 10.000000 -0.000006 -29.900000
v 10.000000 19.999994 -29.900002
v -10.000000 -0.000006 -29.900000
v -10.000000 19.999994 -29.900002
v 10.000000 -0.000006 -30.100000
v 10.000000 19.999994 -30.100002
v -10.000000 -0.000006 -30.100000
v -10.000000 19.999994 -30.100002
vn -0.0000 -0.0000 1.0000
vn -1.0000 -0.0000 -0.0000
vn -0.0000 -0.0000 -1.0000
vn 1.0000 -0.0000 -0.0000
vn -0.0000 -1.0000 -0.0000
vn -0.0000 1.0000 -0.0000
vt 0.375000 0.000000
vt 0.375000 1.000000
vt 0.125000 0.750000
vt 0.625000 0.000000
vt 0.625000 1.000000
vt 0.875000 0.750000
vt 0.375000 0.250000
vt 0.125000 0.500000
vt 0.625000 0.250000
vt 0.875000 0.500000
vt 0.375000 0.750000
vt 0.625000 0.750000
vt 0.375000 0.500000
vt 0.625000 0.500000
s 0
usemtl paredes
f 49/85/37 50/88/37 52/93/37 51/91/37
f 51/91/38 52/93/38 56/98/38 55/97/38
f 55/97/39 56/98/39 54/96/39 53/95/39
f 53/95/40 54/96/40 50/89/40 49/86/40
f 51/92/41 55/97/41 53/95/41 49/87/41
f 56/98/42 52/94/42 50/90/42 54/96/42
o pext8
v 9.900000 0.000006 30.000000
v 9.900000 20.000006 29.999998
v 9.900000 -0.000006 -30.000000
v 9.900000 19.999994 -30.000002
v 10.100000 0.000006 30.000000
v 10.100000 20.000006 29.999998
v 10.100000 -0.000006 -30.000000
v 10.100000 19.999994 -30.000002
v 10.100000 0.000000 3.049922
v 10.100000 -0.000000 -2.886241
v 10.100000 5.858772 3.049920
v 10.100000 5.858772 -2.886245
v 9.900000 -0.000000 -2.829069
v 9.900000 0.000000 3.024126
v 9.900000 5.833230 -2.856060
v 9.900000 5.834876 3.009372
vn -1.0000 -0.0000 -0.0000
vn -0.0000 -0.0000 -1.0000
vn 1.0000 -0.0000 -0.0000
vn -0.0000 -0.0000 1.0000
vn -0.0000 -1.0000 -0.0000
vn -0.0000 1.0000 -0.0000
vn 0.1637 -0.0012 -0.9865
vn 0.1227 -0.9924 0.0001
vn 0.2132 0.0023 0.9770
vt 0.375000 0.000000
vt 0.375000 1.000000
vt 0.125000 0.750000
vt 0.625000 0.000000
vt 0.625000 1.000000
vt 0.875000 0.750000
vt 0.375000 0.250000
vt 0.125000 0.500000
vt 0.625000 0.250000
vt 0.875000 0.500000
vt 0.375000 0.750000
vt 0.625000 0.750000
vt 0.375000 0.500000
vt 0.625000 0.500000
vt 0.375000 0.637708
vt 0.375000 0.612974
vt 0.448235 0.637708
vt 0.448235 0.612974
vt 0.125000 0.613212
vt 0.375000 0.136788
vt 0.125000 0.637601
vt 0.375000 0.112399
vt 0.447915 0.136900
vt 0.447936 0.112461
s 0
usemtl paredes
f 57/99/43 58/102/43 60/107/43 59/105/43 69/118/43 71/121/43 72/122/43 70/120/43
f 59/105/44 60/107/44 64/112/44 63/111/44
f 63/111/45 64/112/45 62/110/45 61/109/45 65/113/45 67/115/45 68/116/45 66/114/45
f 61/109/46 62/110/46 58/103/46 57/100/46
f 59/106/47 63/111/47 66/114/47 65/113/47 61/109/47 57/101/47 70/119/47 69/117/47
f 64/112/48 60/108/48 58/104/48 62/110/48
f 65/113/49 70/120/49 72/122/49 67/115/49
f 67/115/50 72/122/50 71/121/50 68/116/50
f 66/114/51 68/116/51 71/121/51 69/118/51
o pint1
v 10.000000 0.000003 10.099999
v 10.000000 20.000002 10.099997
v -10.000000 0.000003 10.100000
v -10.000000 20.000002 10.099998
v 10.000000 0.000003 9.900000
v 10.000000 20.000002 9.899997
v -10.000000 0.000003 9.900001
v -10.000000 20.000002 9.899998
v 2.005063 0.000003 9.900000
v -2.037072 0.000003 9.900000
v -2.037073 5.337711 9.900000
v 2.005062 5.337711 9.900000
v -2.035570 0.000003 10.100000
v 2.007364 0.000003 10.100000
v -2.035570 5.366923 10.100000
v 2.007364 5.366923 10.100000
vn -0.0000 -0.0000 1.0000
vn -1.0000 -0.0000 -0.0000
vn -0.0000 -0.0000 -1.0000
vn 1.0000 -0.0000 -0.0000
vn -0.0000 -1.0000 -0.0000
vn -0.0000 1.0000 -0.0000
vn -0.0000 -0.9895 0.1445
vn -0.9999 -0.0000 0.0115
vn 1.0000 -0.0000 -0.0075
vt 0.375000 0.000000
vt 0.375000 1.000000
vt 0.125000 0.750000
vt 0.625000 0.000000
vt 0.625000 1.000000
vt 0.875000 0.750000
vt 0.375000 0.250000
vt 0.125000 0.500000
vt 0.625000 0.250000
vt 0.875000 0.500000
vt 0.375000 0.750000
vt 0.625000 0.750000
vt 0.375000 0.500000
vt 0.625000 0.500000
vt 0.375000 0.650063
vt 0.375000 0.599537
vt 0.441721 0.599537
vt 0.441721 0.650063
vt 0.125000 0.599555
vt 0.375000 0.150445
vt 0.125000 0.650092
vt 0.375000 0.099908
vt 0.442086 0.150445
vt 0.442087 0.099908
s 0
usemtl paredes
f 73/123/52 74/126/52 76/131/52 75/129/52 85/142/52 87/145/52 88/146/52 86/144/52
f 75/129/53 76/131/53 80/136/53 79/135/53
f 79/135/54 80/136/54 78/134/54 77/133/54 81/137/54 84/140/54 83/139/54 82/138/54
f 77/133/55 78/134/55 74/127/55 73/124/55
f 75/130/56 79/135/56 82/138/56 81/137/56 77/133/56 73/125/56 86/143/56 85/141/56
f 80/136/57 76/132/57 74/128/57 78/134/57
f 84/140/58 88/146/58 87/145/58 83/139/58
f 81/137/59 86/144/59 88/146/59 84/140/59
f 83/139/60 87/145/60 85/142/60 82/138/60
o pint2
v 10.000000 -0.000003 -9.900001
v 10.000000 19.999998 -9.900003
v -10.000000 -0.000003 -9.900000
v -10.000000 19.999998 -9.900002
v 10.000000 -0.000003 -10.100000
v 10.000000 19.999998 -10.100003
v -10.000000 -0.000003 -10.099999
v -10.000000 19.999998 -10.100002
v 2.005063 -0.000003 -10.100000
v -2.037072 -0.000003 -10.100000
v -2.037073 5.337705 -10.100000
v 2.005062 5.337705 -10.100000
v -2.035570 -0.000003 -9.900000
v 2.007364 -0.000003 -9.900000
v -2.035570 5.366917 -9.900000
v 2.007364 5.366917 -9.900000
vn -0.0000 -0.0000 1.0000
vn -1.0000 -0.0000 -0.0000
vn -0.0000 -0.0000 -1.0000
vn 1.0000 -0.0000 -0.0000
vn -0.0000 -1.0000 -0.0000
vn -0.0000 1.0000 -0.0000
vn -0.0000 -0.9895 0.1445
vn -0.9999 -0.0000 0.0115
vn 1.0000 -0.0000 -0.0075
vt 0.375000 0.000000
vt 0.375000 1.000000
vt 0.125000 0.750000
vt 0.625000 0.000000
vt 0.625000 1.000000
vt 0.875000 0.750000
vt 0.375000 0.250000
vt 0.125000 0.500000
vt 0.625000 0.250000
vt 0.875000 0.500000
vt 0.375000 0.750000
vt 0.625000 0.750000
vt 0.375000 0.500000
vt 0.625000 0.500000
vt 0.375000 0.650063
vt 0.375000 0.599537
vt 0.441721 0.599537
vt 0.441721 0.650063
vt 0.125000 0.599555
vt 0.375000 0.150445
vt 0.125000 0.650092
vt 0.375000 0.099908
vt 0.442086 0.150445
vt 0.442087 0.099908
s 0
usemtl paredes
f 89/147/61 90/150/61 92/155/61 91/153/61 101/166/61 103/169/61 104/170/61 102/168/61
f 91/153/62 92/155/62 96/160/62 95/159/62
f 95/159/63 96/160/63 94/158/63 93/157/63 97/161/63 100/164/63 99/163/63 98/162/63
f 93/157/64 94/158/64 90/151/64 89/148/64
f 91/154/65 95/159/65 98/162/65 97/161/65 93/157/65 89/149/65 102/167/65 101/165/65
f 96/160/66 92/156/66 90/152/66 94/158/66
f 100/164/67 104/170/67 103/169/67 99/163/67
f 97/161/68 102/168/68 104/170/68 100/164/68
f 99/163/69 103/169/69 101/166/69 98/162/69
o pint3
v -10.100000 0.000003 10.000000
v -10.100000 20.000002 9.999997
v -10.100000 -0.000003 -10.000000
v -10.100000 19.999998 -10.000003
v -9.900000 0.000003 10.000000
v -9.900000 20.000002 9.999997
v -9.900000 -0.000003 -10.000000
v -9.900000 19.999998 -10.000003
v -9.900000 0.000000 2.005063
v -9.900000 -0.000000 -2.037072
v -9.900000 5.337708 -2.037073
v -9.900000 5.337708 2.005062
v -10.100000 -0.000000 -2.035570
v -10.100000 0.000000 2.007364
v -10.100000 5.366920 -2.035570
v -10.100000 5.366920 2.007364
vn -1.0000 -0.0000 -0.0000
vn -0.0000 -0.0000 -1.0000
vn 1.0000 -0.0000 -0.0000
vn -0.0000 -0.0000 1.0000
vn -0.0000 -1.0000 -0.0000
vn -0.0000 1.0000 -0.0000
vn -0.1445 -0.9895 -0.0000
vn -0.0115 -0.0000 -0.9999
vn 0.0075 -0.0000 1.0000
vt 0.375000 0.000000
vt 0.375000 1.000000
vt 0.125000 0.750000
vt 0.625000 0.000000
vt 0.625000 1.000000
vt 0.875000 0.750000
vt 0.375000 0.250000
vt 0.125000 0.500000
vt 0.625000 0.250000
vt 0.875000 0.500000
vt 0.375000 0.750000
vt 0.625000 0.750000
vt 0.375000 0.500000
vt 0.625000 0.500000
vt 0.375000 0.650063
vt 0.375000 0.599537
vt 0.441721 0.599537
vt 0.441721 0.650063
vt 0.125000 0.599555
vt 0.375000 0.150445
vt 0.125000 0.650092
vt 0.375000 0.099908
vt 0.442086 0.150445
vt 0.442087 0.099908
s 0
usemtl paredes
f 105/171/70 106/174/70 108/179/70 107/177/70 117/190/70 119/193/70 120/194/70 118/192/70
f 107/177/71 108/179/71 112/184/71 111/183/71
f 111/183/72 112/184/72 110/182/72 109/181/72 113/185/72 116/188/72 115/187/72 114/186/72
f 109/181/73 110/182/73 106/175/73 105/172/73
f 107/178/74 111/183/74 114/186/74 113/185/74 109/181/74 105/173/74 118/191/74 117/189/74
f 112/184/75 108/180/75 106/176/75 110/182/75
f 116/188/76 120/194/76 119/193/76 115/187/76
f 113/185/77 118/192/77 120/194/77 116/188/77
f 115/187/78 119/193/78 117/190/78 114/186/78
o PisoCrash
v -10.000000 0.000004 30.000000
v -10.000000 0.200004 30.000000
v -10.000000 0.000002 10.000000
v -10.000000 0.200002 10.000000
v 10.000000 0.000004 30.000000
v 10.000000 0.200004 30.000000
v 10.000000 0.000002 10.000000
v 10.000000 0.200002 10.000000
vn -1.0000 -0.0000 -0.0000
vn -0.0000 -0.0000 -1.0000
vn 1.0000 -0.0000 -0.0000
vn -0.0000 -0.0000 1.0000
vn -0.0000 -1.0000 -0.0000
vn -0.0000 1.0000 -0.0000
vt 0.375000 0.000000
vt 0.375000 1.000000
vt 0.125000 0.750000
vt 0.625000 0.000000
vt 0.625000 1.000000
vt 0.875000 0.750000
vt 0.375000 0.250000
vt 0.125000 0.500000
vt 0.625000 0.250000
vt 0.875000 0.500000
vt 0.375000 0.750000
vt 0.625000 0.750000
vt 0.375000 0.500000
vt 0.625000 0.500000
s 0
usemtl piso_sonic
f 121/195/79 122/198/79 124/203/79 123/201/79
f 123/201/80 124/203/80 128/208/80 127/207/80
f 127/207/81 128/208/81 126/206/81 125/205/81
f 125/205/82 126/206/82 122/199/82 121/196/82
f 123/202/83 127/207/83 125/205/83 121/197/83
f 128/208/84 124/204/84 122/200/84 126/206/84
o PisoLobby
v -10.000000 0.199998 -10.000000
v -10.000000 -0.000002 -10.000000
v 10.000000 0.199998 -10.000000
v 10.000000 -0.000002 -10.000000
v -10.000000 0.200002 10.000000
v -10.000000 0.000002 10.000000
v 10.000000 0.200002 10.000000
v 10.000000 0.000002 10.000000
vn -0.0000 1.0000 -0.0000
vn 1.0000 -0.0000 -0.0000
vn -0.0000 -0.0000 1.0000
vn -0.0000 -1.0000 -0.0000
vn -0.0000 -0.0000 -1.0000
vn -1.0000 -0.0000 -0.0000
vt 0.625000 0.500000
vt 0.375000 0.500000
vt 0.625000 0.750000
vt 0.375000 0.750000
vt 0.875000 0.500000
vt 0.625000 0.250000
vt 0.125000 0.500000
vt 0.375000 0.250000
vt 0.875000 0.750000
vt 0.625000 1.000000
vt 0.625000 0.000000
vt 0.375000 1.000000
vt 0.375000 0.000000
vt 0.125000 0.750000
s 0
usemtl piso_lobby
f 129/209/85 133/213/85 135/217/85 131/211/85
f 132/212/86 131/211/86 135/218/86 136/220/86
f 136/221/87 135/219/87 133/214/87 134/216/87
f 134/215/88 130/210/88 132/212/88 136/222/88
f 130/210/89 129/209/89 131/211/89 132/212/89
f 134/216/90 133/214/90 129/209/90 130/210/90
o PisoMario
v -30.000000 0.000002 10.000000
v -30.000000 0.200002 10.000000
v -30.000000 -0.000002 -10.000000
v -30.000000 0.199998 -10.000000
v -10.000000 0.000002 10.000000
v -10.000000 0.200002 10.000000
v -10.000000 -0.000002 -10.000000
v -10.000000 0.199998 -10.000000
vn -1.0000 -0.0000 -0.0000
vn -0.0000 -0.0000 -1.0000
vn 1.0000 -0.0000 -0.0000
vn -0.0000 -0.0000 1.0000
vn -0.0000 -1.0000 -0.0000
vn -0.0000 1.0000 -0.0000
vt 0.375000 0.000000
vt 0.375000 1.000000
vt 0.125000 0.750000
vt 0.625000 0.000000
vt 0.625000 1.000000
vt 0.875000 0.750000
vt 0.375000 0.250000
vt 0.125000 0.500000
vt 0.625000 0.250000
vt 0.875000 0.500000
vt 0.375000 0.750000
vt 0.625000 0.750000
vt 0.375000 0.500000
vt 0.625000 0.500000
s 0
usemtl piso_mario
f 137/223/91 138/226/91 140/231/91 139/229/91
f 139/229/92 140/231/92 144/236/92 143/235/92
f 143/235/93 144/236/93 142/234/93 141/233/93
f 141/233/94 142/234/94 138/227/94 137/224/94
f 139/230/95 143/235/95 141/233/95 137/225/95
f 144/236/96 140/232/96 138/228/96 142/234/96
o PisoSonic
v -10.000000 -0.000002 -10.000000
v -10.000000 0.199998 -10.000000
v -10.000000 -0.000004 -30.000000
v -10.000000 0.199996 -30.000000
v 10.000000 -0.000002 -10.000000
v 10.000000 0.199998 -10.000000
v 10.000000 -0.000004 -30.000000
v 10.000000 0.199996 -30.000000
vn -1.0000 -0.0000 -0.0000
vn -0.0000 -0.0000 -1.0000
vn 1.0000 -0.0000 -0.0000
vn -0.0000 -0.0000 1.0000
vn -0.0000 -1.0000 -0.0000
vn -0.0000 1.0000 -0.0000
vt 0.375000 0.000000
vt 0.375000 1.000000
vt 0.125000 0.750000
vt 0.625000 0.000000
vt 0.625000 1.000000
vt 0.875000 0.750000
vt 0.375000 0.250000
vt 0.125000 0.500000
vt 0.625000 0.250000
vt 0.875000 0.500000
vt 0.375000 0.750000
vt 0.625000 0.750000
vt 0.375000 0.500000
vt 0.625000 0.500000
s 0
usemtl piso_crash
f 145/237/97 146/240/97 148/245/97 147/243/97
f 147/243/98 148/245/98 152/250/98 151/249/98
f 151/249/99 152/250/99 150/248/99 149/247/99
f 149/247/100 150/248/100 146/241/100 145/238/100
f 147/244/101 151/249/101 149/247/101 145/239/101
f 152/250/102 148/246/102 146/242/102 150/248/102
