# Blender 3.6.5
# www.blender.org
mtllib Aku_pazul.mtl
o AkuAku.006
v -3.523700 32.870998 -4.748705
v -1.313800 30.987499 -4.231605
v -0.849000 27.398300 -1.821704
v -3.042700 28.906900 -1.395804
v -1.281900 23.561199 0.135496
v -2.636000 22.883900 1.178696
v -4.896200 28.879900 -0.779204
v -3.182900 22.899900 1.325496
v -2.480600 20.975401 1.749296
v -2.717000 21.004499 2.022496
v -3.741600 22.774500 1.240896
v -3.157700 20.958900 1.697496
v -6.389000 34.198502 -5.182204
v -8.215100 31.530199 -3.699104
v -6.432900 27.750099 -0.714904
v -8.132000 25.862499 -0.540504
v -5.337400 23.063499 0.919896
v -9.440200 28.367100 -1.876604
vn 0.4295 0.4720 0.7699
vn 0.2837 0.5763 0.7664
vn 0.2399 0.6470 0.7238
vn 0.3629 0.5504 0.7519
vn 0.4281 0.3914 0.8146
vn 0.2956 0.3667 0.8821
vn -0.0056 0.5160 0.8566
vn 0.0391 0.3433 0.9384
vn 0.6507 0.3943 0.6490
vn 0.1964 0.3380 0.9204
vn -0.2226 0.2856 0.9321
vn -0.5956 0.0225 0.8030
vn 0.0030 0.6533 0.7571
vn -0.2326 0.5828 0.7786
vn -0.2386 0.3921 0.8885
vn -0.2320 0.3195 0.9188
vn -0.1249 0.3805 0.9163
vn -0.2332 0.4967 0.8360
vt 0.267600 0.580700
vt 0.261200 0.265500
vt 0.220100 0.174700
vt 0.192900 0.408200
vt 0.240700 0.800500
vt 0.172200 0.815100
vt 0.145700 0.386500
vt 0.158400 0.806900
vt 0.169100 0.955000
vt 0.163100 0.951700
vt 0.143600 0.833900
vt 0.151900 0.945400
vt 0.141700 -0.006400
vt 0.079000 0.146000
vt 0.100100 0.435000
vt 0.015900 0.542500
vt 0.105100 0.788900
vt 0.004700 0.350800
s 1
usemtl Material__26
f 3/1/1 2/2/2 1/3/3
f 3/1/1 1/3/3 4/4/4
f 5/5/5 3/1/1 4/4/4
f 6/6/6 5/5/5 4/4/4
f 6/6/6 4/4/4 7/7/7
f 6/6/6 7/7/7 8/8/8
f 9/9/9 6/6/6 8/8/8
f 10/10/10 9/9/9 8/8/8
f 10/10/10 8/8/8 11/11/11
f 12/12/12 10/10/10 11/11/11
f 4/4/4 1/3/3 13/13/13
f 7/7/7 4/4/4 13/13/13
f 7/7/7 13/13/13 14/14/14
f 7/7/7 14/14/14 15/15/15
f 8/8/8 7/7/7 15/15/15
f 11/11/11 8/8/8 15/15/15
f 11/11/11 15/15/15 16/16/16
f 17/17/17 11/11/11 16/16/16
f 18/18/18 16/16/16 15/15/15
f 18/18/18 15/15/15 14/14/14
