# Blender 3.6.5
# www.blender.org
mtllib Aku_cejai.mtl
o AkuAku.002
v 4.965900 19.658400 4.993998
v 5.961000 20.393101 3.139497
v 5.478300 17.721399 3.266797
v 4.852600 18.334700 5.098098
v -0.393100 18.867701 3.235197
v -0.325100 17.092400 3.261998
v 0.294800 18.481899 4.061597
v 0.128500 17.337999 4.044497
vn 0.6339 -0.6615 -0.4008
vn 0.6707 0.6439 -0.3683
vn 0.3501 0.5224 0.7775
vn 0.3985 -0.4106 0.8201
vn -0.6529 -0.6711 -0.3511
vn -0.7732 0.5412 -0.3304
vn -0.3900 -0.5736 0.7204
vn -0.4521 0.3642 0.8142
vt 0.006600 0.990800
vt 0.025300 0.883900
vt 0.135600 0.908800
vt 0.125000 0.993000
vt 0.127500 0.988800
vt 0.127500 0.911300
vt 0.408800 0.911300
vt 0.408800 0.988800
vt 0.416700 0.996300
vt 0.409900 0.911700
vt 0.505400 0.902900
vt 0.506400 0.964000
vt 0.077900 0.993500
vt 0.415400 0.997300
vt 0.136800 0.909000
vt 0.409300 0.911000
s 1
usemtl Material__25
f 3/1/1 2/2/2 1/3/3
f 3/1/1 1/3/3 4/4/4
f 6/5/5 5/6/6 2/7/2
f 6/5/5 2/7/2 3/8/1
f 8/9/7 7/10/8 5/11/6
f 8/9/7 5/11/6 6/12/5
f 4/4/4 1/3/3 7/10/8
f 4/4/4 7/10/8 8/9/7
f 1/3/3 2/13/2 5/14/6
f 1/3/3 5/14/6 7/10/8
f 4/15/4 8/16/7 6/9/5
f 4/15/4 6/9/5 3/4/1
