# Blender 3.6.5
# www.blender.org
mtllib caja_fruta.mtl
o crate_fruit_hi
v 0.876000 -0.000000 -0.870000
v -0.870000 -0.000000 -0.870000
v 0.582000 -0.000000 -0.582000
v 0.876000 -0.000000 -0.870000
v 0.582000 -0.000000 -0.582000
v 0.876000 0.000000 0.876000
v 0.876000 0.000000 0.876000
v 0.582000 -0.000000 -0.582000
v 0.582000 0.000000 0.582000
v 0.876000 0.000000 0.876000
v 0.582000 0.000000 0.582000
v -0.870000 0.000000 0.876000
v -0.870000 0.000000 0.876000
v 0.582000 0.000000 0.582000
v -0.582000 0.000000 0.582000
v -0.870000 0.000000 0.876000
v -0.582000 0.000000 0.582000
v -0.582000 -0.000000 -0.582000
v -0.582000 -0.000000 -0.582000
v -0.582000 0.000000 0.582000
v 0.582000 0.000000 0.582000
v -0.582000 -0.000000 -0.582000
v 0.582000 0.000000 0.582000
v 0.582000 -0.000000 -0.582000
v -0.582000 -0.000000 -0.582000
v 0.582000 -0.000000 -0.582000
v -0.870000 -0.000000 -0.870000
v -0.582000 -0.000000 -0.582000
v -0.870000 -0.000000 -0.870000
v -0.870000 0.000000 0.876000
v 0.582000 0.287000 0.876000
v 0.876000 1.747000 0.876000
v 0.876000 0.000000 0.876000
v 0.582000 0.287000 0.876000
v 0.876000 0.000000 0.876000
v -0.582000 0.287000 0.876000
v -0.582000 0.287000 0.876000
v 0.876000 0.000000 0.876000
v -0.870000 0.000000 0.876000
v -0.582000 0.287000 0.876000
v -0.870000 0.000000 0.876000
v -0.582000 1.452000 0.876000
v -0.582000 1.452000 0.876000
v -0.870000 0.000000 0.876000
v -0.870000 1.747000 0.876000
v -0.582000 1.452000 0.876000
v -0.870000 1.747000 0.876000
v 0.582000 1.452000 0.876000
v 0.582000 1.452000 0.876000
v -0.870000 1.747000 0.876000
v 0.876000 1.747000 0.876000
v 0.582000 1.452000 0.876000
v 0.876000 1.747000 0.876000
v 0.582000 0.287000 0.876000
v 0.582000 1.452000 0.876000
v 0.582000 0.287000 0.876000
v -0.582000 1.452000 0.876000
v -0.582000 1.452000 0.876000
v 0.582000 0.287000 0.876000
v -0.582000 0.287000 0.876000
v 0.582000 1.747000 0.582000
v 0.876000 1.747000 -0.870000
v 0.876000 1.747000 0.876000
v 0.582000 1.747000 0.582000
v 0.876000 1.747000 0.876000
v -0.582000 1.747000 0.582000
v -0.582000 1.747000 0.582000
v 0.876000 1.747000 0.876000
v -0.870000 1.747000 0.876000
v -0.582000 1.747000 0.582000
v -0.870000 1.747000 0.876000
v -0.870000 1.747000 -0.870000
v -0.582000 1.747000 0.582000
v -0.870000 1.747000 -0.870000
v -0.582000 1.747000 -0.582000
v -0.582000 1.747000 0.582000
v -0.582000 1.747000 -0.582000
v 0.582000 1.747000 0.582000
v 0.582000 1.747000 0.582000
v -0.582000 1.747000 -0.582000
v 0.582000 1.747000 -0.582000
v 0.582000 1.747000 0.582000
v 0.582000 1.747000 -0.582000
v 0.876000 1.747000 -0.870000
v 0.876000 1.747000 -0.870000
v 0.582000 1.747000 -0.582000
v -0.582000 1.747000 -0.582000
v 0.876000 1.747000 -0.870000
v -0.582000 1.747000 -0.582000
v -0.870000 1.747000 -0.870000
v -0.582000 1.452000 -0.870000
v 0.876000 1.747000 -0.870000
v -0.870000 1.747000 -0.870000
v -0.582000 1.452000 -0.870000
v -0.870000 1.747000 -0.870000
v -0.582000 0.287000 -0.870000
v -0.582000 0.287000 -0.870000
v -0.870000 1.747000 -0.870000
v -0.870000 -0.000000 -0.870000
v -0.582000 0.287000 -0.870000
v -0.870000 -0.000000 -0.870000
v 0.582000 0.287000 -0.870000
v 0.582000 0.287000 -0.870000
v -0.870000 -0.000000 -0.870000
v 0.876000 -0.000000 -0.870000
v 0.582000 0.287000 -0.870000
v 0.876000 -0.000000 -0.870000
v 0.582000 1.452000 -0.870000
v 0.582000 1.452000 -0.870000
v 0.876000 -0.000000 -0.870000
v 0.876000 1.747000 -0.870000
v 0.582000 1.452000 -0.870000
v 0.876000 1.747000 -0.870000
v -0.582000 1.452000 -0.870000
v 0.582000 1.452000 -0.870000
v -0.582000 1.452000 -0.870000
v -0.582000 0.287000 -0.870000
v 0.582000 1.452000 -0.870000
v -0.582000 0.287000 -0.870000
v 0.582000 0.287000 -0.870000
v 0.876000 1.452000 0.582000
v 0.876000 0.000000 0.876000
v 0.876000 1.747000 0.876000
v 0.876000 1.452000 0.582000
v 0.876000 1.747000 0.876000
v 0.876000 1.452000 -0.582000
v 0.876000 1.452000 -0.582000
v 0.876000 1.747000 0.876000
v 0.876000 1.747000 -0.870000
v 0.876000 1.452000 -0.582000
v 0.876000 1.747000 -0.870000
v 0.876000 0.287000 -0.582000
v 0.876000 0.287000 -0.582000
v 0.876000 1.747000 -0.870000
v 0.876000 -0.000000 -0.870000
v 0.876000 0.287000 -0.582000
v 0.876000 -0.000000 -0.870000
v 0.876000 0.287000 0.582000
v 0.876000 0.287000 0.582000
v 0.876000 -0.000000 -0.870000
v 0.876000 0.000000 0.876000
v 0.876000 0.287000 0.582000
v 0.876000 0.000000 0.876000
v 0.876000 1.452000 0.582000
v 0.876000 0.287000 0.582000
v 0.876000 1.452000 0.582000
v 0.876000 0.287000 -0.582000
v 0.876000 0.287000 -0.582000
v 0.876000 1.452000 0.582000
v 0.876000 1.452000 -0.582000
v -0.870000 1.452000 -0.582000
v -0.870000 -0.000000 -0.870000
v -0.870000 1.747000 -0.870000
v -0.870000 1.452000 -0.582000
v -0.870000 1.747000 -0.870000
v -0.870000 1.452000 0.582000
v -0.870000 1.452000 0.582000
v -0.870000 1.747000 -0.870000
v -0.870000 1.747000 0.876000
v -0.870000 1.452000 0.582000
v -0.870000 1.747000 0.876000
v -0.870000 0.287000 0.582000
v -0.870000 0.287000 0.582000
v -0.870000 1.747000 0.876000
v -0.870000 0.000000 0.876000
v -0.870000 0.287000 0.582000
v -0.870000 0.000000 0.876000
v -0.870000 0.287000 -0.582000
v -0.870000 0.287000 -0.582000
v -0.870000 0.000000 0.876000
v -0.870000 -0.000000 -0.870000
v -0.870000 0.287000 -0.582000
v -0.870000 -0.000000 -0.870000
v -0.870000 1.452000 -0.582000
v -0.870000 0.287000 -0.582000
v -0.870000 1.452000 -0.582000
v -0.870000 0.287000 0.582000
v -0.870000 0.287000 0.582000
v -0.870000 1.452000 -0.582000
v -0.870000 1.452000 0.582000
vn -0.0000 -1.0000 -0.0000
vn -0.0000 -0.0000 1.0000
vn -0.0000 1.0000 -0.0000
vn -0.0000 -0.0000 -1.0000
vn 1.0000 -0.0000 -0.0000
vn -1.0000 -0.0000 -0.0000
vt 0.000000 0.000000
vt 1.000000 0.000000
vt 0.000000 1.000000
vt 1.000000 1.000000
s 0
usemtl 572_496_52_350_16_16.001
f 1/1/1 3/2/1 2/3/1
f 4/3/1 6/1/1 5/4/1
f 7/1/1 9/2/1 8/4/1
f 10/3/1 12/1/1 11/4/1
f 13/1/1 15/2/1 14/4/1
f 16/3/1 18/2/1 17/4/1
f 25/4/1 27/3/1 26/2/1
f 28/2/1 30/3/1 29/1/1
f 31/4/2 33/3/2 32/1/2
f 34/2/2 36/4/2 35/1/2
f 37/4/2 39/3/2 38/1/2
f 40/2/2 42/4/2 41/1/2
f 43/4/2 45/3/2 44/1/2
f 46/2/2 48/4/2 47/1/2
f 49/4/2 51/3/2 50/1/2
f 52/2/2 54/4/2 53/1/2
f 61/4/3 63/3/3 62/1/3
f 64/2/3 66/4/3 65/1/3
f 67/4/3 69/3/3 68/1/3
f 70/2/3 72/3/3 71/1/3
f 73/2/3 75/4/3 74/3/3
f 82/4/3 84/1/3 83/2/3
f 85/3/3 87/2/3 86/4/3
f 88/3/3 90/1/3 89/2/3
f 91/4/4 93/3/4 92/1/4
f 94/2/4 96/4/4 95/1/4
f 97/4/4 99/3/4 98/1/4
f 100/2/4 102/4/4 101/1/4
f 103/4/4 105/3/4 104/1/4
f 106/2/4 108/4/4 107/1/4
f 109/4/4 111/3/4 110/1/4
f 112/2/4 114/4/4 113/1/4
f 121/4/5 123/3/5 122/1/5
f 124/2/5 126/4/5 125/1/5
f 127/4/5 129/3/5 128/1/5
f 130/2/5 132/4/5 131/1/5
f 133/4/5 135/3/5 134/1/5
f 136/2/5 138/4/5 137/1/5
f 139/4/5 141/3/5 140/1/5
f 142/2/5 144/4/5 143/1/5
f 151/4/6 153/3/6 152/1/6
f 154/2/6 156/4/6 155/1/6
f 157/4/6 159/3/6 158/1/6
f 160/2/6 162/4/6 161/1/6
f 163/4/6 165/3/6 164/1/6
f 166/2/6 168/4/6 167/1/6
f 169/4/6 171/3/6 170/1/6
f 172/2/6 174/4/6 173/1/6
usemtl 544_128_41_248_64_64
f 19/1/1 21/4/1 20/3/1
f 22/1/1 24/2/1 23/4/1
f 55/4/2 57/3/2 56/2/2
f 58/3/2 60/1/2 59/2/2
f 76/4/3 78/3/3 77/2/3
f 79/3/3 81/1/3 80/2/3
f 115/3/4 117/2/4 116/4/4
f 118/3/4 120/1/4 119/2/4
f 145/1/5 147/2/5 146/3/5
f 148/2/5 150/4/5 149/3/5
f 175/1/6 177/2/6 176/3/6
f 178/2/6 180/4/6 179/3/6
