# Blender 3.6.5
# www.blender.org
mtllib Aku_pama.mtl
o AkuAku.007
v 0.979200 22.426399 1.026196
v -0.808000 23.355900 -1.369504
v -1.729800 26.204901 -4.265504
v 0.395400 28.389601 -2.115404
v -0.331200 29.888901 -4.524304
v 1.829900 32.290699 -3.971304
v 2.825200 29.117901 -0.912804
v 4.053100 33.831001 -4.220504
v 4.962500 28.120501 -0.246104
v 5.449200 31.712700 -3.021904
v 6.338700 25.450701 -0.292004
v 6.615000 28.809799 -2.165804
v 4.277400 22.588400 1.093296
v 1.947000 22.249300 1.208496
v 1.482200 22.287600 1.567796
v 1.538400 21.046700 1.921396
v 1.196800 21.060900 2.068996
v 0.933000 21.000000 1.583296
vn -0.7870 0.3101 0.5333
vn -0.6192 0.4697 0.6292
vn -0.6844 0.3391 0.6455
vn -0.6680 0.4087 0.6219
vn -0.7397 0.4604 0.4908
vn -0.4500 0.5882 0.6720
vn -0.2631 0.5031 0.8232
vn -0.1265 0.6238 0.7713
vn 0.3051 0.4132 0.8580
vn 0.2787 0.5693 0.7735
vn 0.4526 0.2464 0.8570
vn 0.4277 0.4258 0.7973
vn 0.0865 0.2366 0.9677
vn 0.4317 0.2305 0.8721
vn -0.0071 0.3906 0.9205
vn 0.4337 0.2750 0.8581
vn -0.3264 0.3651 0.8719
vn -0.8673 0.2228 0.4451
vt 0.271300 0.608500
vt 0.324500 0.820500
vt 0.376200 0.849500
vt 0.348500 0.478600
vt 0.303900 0.389400
vt 0.368700 0.201000
vt 0.411800 0.404900
vt 0.417300 0.056200
vt 0.477700 0.440900
vt 0.458500 0.186200
vt 0.532700 0.588800
vt 0.516400 0.362700
vt 0.463600 0.839400
vt 0.406100 0.855700
vt 0.391500 0.854700
vt 0.401500 0.934900
vt 0.392200 0.940200
vt 0.384800 0.944400
s 1
usemtl Material__26
f 3/1/1 2/2/2 1/3/3
f 3/1/1 1/3/3 4/4/4
f 5/5/5 3/1/1 4/4/4
f 6/6/6 5/5/5 4/4/4
f 6/6/6 4/4/4 7/7/7
f 8/8/8 6/6/6 7/7/7
f 8/8/8 7/7/7 9/9/9
f 10/10/10 8/8/8 9/9/9
f 10/10/10 9/9/9 11/11/11
f 12/12/12 10/10/10 11/11/11
f 13/13/13 11/11/11 9/9/9
f 14/14/14 13/13/13 9/9/9
f 14/14/14 9/9/9 7/7/7
f 14/14/14 7/7/7 15/15/15
f 16/16/16 14/14/14 15/15/15
f 17/17/17 16/16/16 15/15/15
f 17/17/17 15/15/15 1/3/3
f 18/18/18 17/17/17 1/3/3
f 4/4/4 1/3/3 15/15/15
f 4/4/4 15/15/15 7/7/7
