# Blender 3.6.5
# www.blender.org
mtllib Aku_pverde.mtl
o AkuAku.004
v 4.466700 22.177099 1.832096
v 3.856600 23.481199 1.772596
v 4.356300 26.058201 1.411596
v 6.590000 25.293699 1.126796
v 6.912400 27.568100 0.349396
v 9.847000 27.060400 -0.055904
v 8.359300 24.106001 0.698396
v 11.952600 26.259899 -0.609904
v 9.046900 22.599899 -0.148004
v 11.967600 23.983101 -1.591604
v 9.169400 20.752800 -1.384404
v 11.165600 21.231501 -2.413304
v 6.922500 20.597900 -0.328004
v 5.046000 21.385799 1.531396
v 4.808400 21.810600 1.759096
v 4.460000 20.874100 1.708496
v 3.891400 21.100500 2.101696
v 3.526400 21.066799 1.842696
vn 0.1779 0.1850 0.9665
vn 0.1383 0.1184 0.9833
vn 0.1919 0.1101 0.9752
vn 0.2243 0.1668 0.9601
vn 0.1881 0.3067 0.9330
vn 0.2648 0.1481 0.9529
vn 0.3743 -0.0997 0.9219
vn 0.4388 -0.1575 0.8847
vn 0.4843 -0.4004 0.7779
vn 0.5352 -0.3765 0.7562
vn 0.4743 -0.4669 0.7463
vn 0.4950 -0.3945 0.7742
vn 0.4415 -0.5517 0.7076
vn 0.4438 -0.2968 0.8456
vn 0.3616 -0.0859 0.9284
vn 0.4815 -0.2360 0.8441
vn -0.1691 0.2799 0.9450
vn -0.5372 0.4856 0.6896
vt 0.782100 0.703300
vt 0.808300 0.874000
vt 0.879800 0.894500
vt 0.856400 0.708300
vt 0.789700 0.581700
vt 0.849400 0.437700
vt 0.892500 0.663900
vt 0.896100 0.329000
vt 0.929000 0.670800
vt 0.956800 0.424200
vt 0.977300 0.688900
vt 0.989900 0.565700
vt 0.944900 0.839300
vt 0.910000 0.893300
vt 0.892400 0.888500
vt 0.905600 0.948700
vt 0.899700 0.969200
vt 0.893000 0.982200
s 1
usemtl Material__26
f 3/1/1 2/2/2 1/3/3
f 3/1/1 1/3/3 4/4/4
f 5/5/5 3/1/1 4/4/4
f 6/6/6 5/5/5 4/4/4
f 6/6/6 4/4/4 7/7/7
f 8/8/8 6/6/6 7/7/7
f 8/8/8 7/7/7 9/9/9
f 10/10/10 8/8/8 9/9/9
f 10/10/10 9/9/9 11/11/11
f 12/12/12 10/10/10 11/11/11
f 13/13/13 11/11/11 9/9/9
f 14/14/14 13/13/13 9/9/9
f 14/14/14 9/9/9 7/7/7
f 14/14/14 7/7/7 15/15/15
f 16/16/16 14/14/14 15/15/15
f 17/17/17 16/16/16 15/15/15
f 17/17/17 15/15/15 1/3/3
f 18/18/18 17/17/17 1/3/3
f 4/4/4 1/3/3 15/15/15
f 4/4/4 15/15/15 7/7/7
