# Blender 3.6.5
# www.blender.org
mtllib Aku_cejad.mtl
o AkuAku.001
v -8.236500 17.625900 3.123497
v -7.773800 20.541599 3.328296
v -7.061200 19.757099 5.213098
v -7.452300 18.056200 5.171597
v -1.325200 18.532200 3.287898
v -1.067200 20.591101 3.555496
v -1.892600 18.810699 4.334096
v -1.935000 19.722700 4.312498
vn -0.3541 0.4562 0.8164
vn -0.6007 0.7034 -0.3799
vn -0.6847 -0.5815 -0.4394
vn -0.4552 -0.5061 0.7326
vn 0.7408 0.6519 -0.1621
vn 0.6913 -0.5735 -0.4396
vn 0.3396 0.2606 0.9037
vn 0.4502 -0.4727 0.7575
vt 0.115100 0.912400
vt 0.011000 0.871100
vt 0.003800 0.992200
vt 0.100600 0.984400
vt 0.408800 0.911300
vt 0.127500 0.911300
vt 0.127500 0.988800
vt 0.408800 0.988800
vt 0.505400 0.902900
vt 0.418700 0.918800
vt 0.450700 0.990800
vt 0.523600 0.994000
vt 0.451600 0.997300
vt 0.101500 0.983600
vt 0.414900 0.919300
vt 0.132500 0.913400
s 1
usemtl Material__25
f 3/1/1 2/2/2 1/3/3
f 3/1/1 1/3/3 4/4/4
f 2/5/2 6/6/5 5/7/6
f 2/5/2 5/7/6 1/8/3
f 6/9/5 8/10/7 7/11/8
f 6/9/5 7/11/8 5/12/6
f 8/10/7 3/1/1 4/4/4
f 8/10/7 4/4/4 7/11/8
f 6/13/5 2/14/2 3/1/1
f 6/13/5 3/1/1 8/10/7
f 5/11/6 7/15/8 4/16/4
f 5/11/6 4/16/4 1/4/3
